<?xml version="1.0" standalone="no"?>
<!DOCTYPE svg PUBLIC "-//W3C//DTD SVG 20010904//EN"
 "http://www.w3.org/TR/2001/REC-SVG-20010904/DTD/svg10.dtd">
<svg version="1.0" xmlns="http://www.w3.org/2000/svg"
 width="459.000000pt" height="654.000000pt" viewBox="0 0 459.000000 654.000000"
 preserveAspectRatio="xMidYMid meet">
<metadata>
Created by potrace 1.13, written by Peter Selinger 2001-2015
</metadata>
<g transform="translate(0.000000,654.000000) scale(0.100000,-0.100000)"
fill="#000000" stroke="none">
<path d="M155 6483 c-4 -32 -13 -65 -20 -73 -21 -25 -33 -80 -45 -205 -6 -66
-18 -185 -27 -265 -12 -116 -16 -264 -15 -735 0 -324 4 -669 8 -765 4 -96 7
-186 6 -200 -11 -178 -12 -746 -1 -895 16 -230 16 -229 20 -560 2 -154 0 -285
-4 -292 -4 -6 -16 -78 -27 -160 -11 -81 -27 -200 -35 -263 -13 -97 -15 -268
-14 -1078 0 -530 3 -970 6 -978 4 -12 64 -14 364 -14 l359 0 -11 24 c-8 17 -8
29 0 45 16 29 23 26 43 -16 14 -29 15 -39 5 -45 -6 -4 36 -8 95 -8 59 0 109 4
112 9 3 5 15 11 27 14 15 4 19 2 15 -9 -4 -11 7 -14 53 -14 43 0 60 4 65 15 3
8 10 15 16 15 5 0 10 -7 10 -15 0 -11 11 -15 40 -15 29 0 40 4 40 15 0 8 7 15
15 15 8 0 15 -7 15 -15 0 -13 37 -15 275 -15 l275 0 0 31 c0 38 24 35 28 -4
l3 -27 745 0 c476 1 743 4 739 10 -8 13 8 13 21 0 14 -14 309 -9 309 5 0 5
-13 13 -30 16 -27 6 -25 10 8 13 6 1 18 7 26 14 7 7 22 10 33 6 13 -4 24 -1
29 7 14 23 10 29 -16 29 l-25 0 20 20 c13 13 20 34 20 58 1 31 6 41 35 62 19
14 51 48 71 77 20 28 43 54 50 57 8 3 14 11 14 18 0 6 10 22 22 35 18 19 20
27 10 48 -10 22 -9 25 7 25 10 0 26 9 37 21 30 33 69 50 83 36 6 -6 11 -15 11
-19 0 -4 18 -25 39 -46 22 -21 43 -51 46 -65 4 -15 11 -30 16 -33 16 -9 -20
-64 -42 -64 -19 0 -86 -49 -130 -95 -84 -89 -114 -125 -126 -154 -8 -19 -21
-40 -29 -48 -8 -8 -14 -19 -14 -24 0 -5 153 -9 380 -9 l381 0 -4 758 c-2 416
-7 772 -12 791 -5 24 -4 32 4 27 8 -5 11 178 11 711 l0 718 -90 75 c-96 79
-98 83 -104 188 -2 34 1 52 9 52 11 0 56 -37 133 -107 19 -18 39 -33 44 -33 4
0 8 27 8 60 l0 60 -76 62 c-42 35 -82 64 -90 66 -21 5 -61 81 -69 132 -4 25
-18 77 -30 115 -13 39 -28 108 -35 155 -6 47 -16 96 -21 110 -5 14 -11 86 -13
160 -3 74 -12 266 -20 425 -9 160 -18 357 -21 438 -3 82 -9 239 -14 349 -5
110 -7 206 -4 214 10 25 -7 36 -32 20 -61 -40 -125 22 -125 122 0 27 -7 69
-16 93 -8 24 -15 75 -15 113 0 54 -5 78 -23 110 l-23 42 23 28 c29 33 30 52 4
66 -11 6 -20 19 -20 30 0 10 -4 29 -9 42 -5 13 -12 35 -15 50 -3 14 -18 41
-33 59 -18 21 -29 48 -33 77 -6 50 -25 66 -38 31 -10 -27 6 -114 36 -190 23
-59 52 -153 52 -167 0 -5 -20 -9 -44 -9 -24 0 -60 -7 -79 -16 -33 -16 -35 -20
-30 -52 3 -19 1 -35 -4 -35 -9 0 -33 56 -33 79 0 6 -16 49 -36 94 -39 89 -44
100 -69 166 -9 25 -37 67 -62 95 -43 48 -83 121 -83 152 0 12 -51 14 -320 14
-302 0 -321 -1 -352 -20 -19 -11 -51 -20 -74 -20 -29 0 -44 -5 -48 -16 -9 -22
-8 -24 9 -24 21 0 19 -24 -6 -46 -13 -11 -23 -14 -27 -8 -4 6 -15 13 -25 17
-16 6 -14 12 22 55 23 27 41 51 41 55 0 3 -531 7 -1180 7 -1047 0 -1180 -1
-1180 -15 0 -11 12 -15 45 -15 33 0 47 -5 52 -16 7 -18 -12 -34 -42 -34 -41 0
-46 -20 -14 -59 27 -33 39 -71 22 -71 -4 0 -17 10 -30 22 -26 25 -35 20 -38
-19 -1 -16 -3 -38 -3 -50 -1 -13 -9 -23 -17 -23 -13 0 -15 9 -10 48 3 27 1 53
-5 62 -9 13 -13 12 -27 -7 -16 -23 -43 -31 -43 -13 0 5 8 25 17 45 17 36 15
44 -19 57 -3 2 -8 12 -10 23 -2 14 3 20 17 20 13 0 20 7 20 20 0 17 -8 20 -52
23 l-51 3 -7 -58z m1519 -53 c-7 -69 -7 -70 17 -70 13 1 35 7 49 15 14 8 40
14 58 15 47 0 39 -29 -13 -47 -55 -19 -83 -47 -66 -67 7 -9 28 -18 46 -22 38
-7 79 -40 69 -56 -7 -11 -44 -6 -91 13 -44 18 -60 3 -44 -42 13 -39 14 -96 2
-103 -22 -14 -39 7 -43 55 -7 70 -23 82 -56 43 -30 -34 -66 -57 -76 -47 -13
13 -5 37 25 70 16 19 28 40 26 46 -2 7 -28 12 -60 12 -62 1 -72 6 -64 30 5 10
20 15 50 15 61 0 75 19 44 56 -74 89 -52 135 24 52 32 -36 40 -40 49 -28 5 8
10 31 10 50 0 36 23 80 41 80 5 0 7 -28 3 -70z m813 41 c13 -21 8 -32 -13 -24
-14 5 -20 43 -6 43 4 0 13 -9 19 -19z m-1637 5 c0 -3 -4 -8 -10 -11 -5 -3 -10
-1 -10 4 0 6 5 11 10 11 6 0 10 -2 10 -4z m1477 -18 c-3 -8 -6 -5 -6 6 -1 11
2 17 5 13 3 -3 4 -12 1 -19z m112 -33 c-3 -3 -20 -2 -37 1 -33 7 -40 22 -20
42 10 10 18 7 37 -13 14 -13 23 -27 20 -30z m401 -7 c0 -5 -5 -8 -11 -8 -14 0
-40 26 -32 33 6 7 43 -15 43 -25z m-207 -24 c8 -8 -20 -64 -32 -64 -5 0 -16 3
-25 6 -13 5 -12 10 6 35 21 28 38 36 51 23z m-1713 -20 c0 -17 -22 -14 -28 4
-2 7 3 12 12 12 9 0 16 -7 16 -16z m-36 -32 c9 -15 -6 -52 -20 -52 -9 0 -14
11 -14 30 0 29 21 42 34 22z m1664 -4 c-3 -7 -21 -22 -41 -32 -30 -16 -41 -17
-62 -8 -36 17 -21 34 26 31 21 -2 44 2 51 9 16 16 31 15 26 0z m262 -10 c0 -7
-11 -23 -24 -35 -23 -22 -25 -22 -46 -5 -32 26 -17 52 31 52 25 0 39 -5 39
-12z m-1835 -108 c4 -6 18 -9 33 -8 18 2 27 -2 30 -14 3 -13 -5 -16 -48 -15
-37 2 -55 -3 -63 -14 -12 -15 -77 -52 -83 -46 -1 1 0 21 3 45 6 44 21 53 43
27 17 -21 40 -19 40 3 0 31 31 45 45 22z m-156 -152 c12 -27 15 -29 26 -15 16
23 42 21 48 -2 3 -13 -5 -29 -22 -45 -31 -30 -41 -32 -41 -11 0 26 -22 63 -41
68 -24 6 -25 37 -1 37 10 0 23 -13 31 -32z m226 -26 c6 -31 5 -33 -12 -24 -10
6 -27 20 -38 32 -20 22 -20 22 0 36 24 18 40 4 50 -44z m266 -5 c-6 -6 -7 -16
-1 -28 8 -15 4 -17 -30 -21 -22 -2 -40 -1 -40 1 0 3 10 15 21 28 19 19 20 25
8 39 -11 14 -11 18 6 30 17 13 21 12 33 -12 10 -18 11 -29 3 -37z m-534 -49
c14 -11 6 -38 -11 -38 -14 0 -145 -125 -167 -160 -9 -14 -33 -31 -54 -39 -55
-19 -68 -2 -70 91 -2 116 16 146 108 173 30 9 54 8 110 -3 40 -8 77 -19 84
-24z m2583 12 c0 -5 -4 -10 -10 -10 -5 0 -10 5 -10 10 0 6 5 10 10 10 6 0 10
-4 10 -10z m-2360 -40 c8 -5 11 -12 8 -16 -10 -9 -38 3 -38 16 0 12 10 13 30
0z m-80 -9 c0 -10 -45 -41 -60 -41 -18 0 -10 15 18 32 32 19 42 21 42 9z m728
-35 c37 -2 25 -14 -20 -18 -47 -5 -82 7 -72 24 4 6 19 7 38 3 17 -4 41 -8 54
-9z m1732 -6 c0 -5 -4 -10 -10 -10 -5 0 -10 5 -10 10 0 6 5 10 10 10 6 0 10
-4 10 -10z m-2930 -8 c0 -5 -9 -17 -19 -26 -16 -15 -25 -16 -61 -6 -23 6 -48
9 -55 6 -7 -2 -21 4 -31 15 -17 19 -15 19 74 19 51 0 92 -4 92 -8z m2600 -8
c0 -9 -5 -14 -12 -12 -18 6 -21 28 -4 28 9 0 16 -7 16 -16z m294 -19 c-4 -8
-10 -15 -15 -15 -4 0 -6 7 -3 15 4 8 10 15 15 15 4 0 6 -7 3 -15z m-419 -15
c-3 -5 -13 -10 -21 -10 -8 0 -14 5 -14 10 0 6 9 10 21 10 11 0 17 -4 14 -10z
m-2599 -27 c-10 -10 -19 5 -10 18 6 11 8 11 12 0 2 -7 1 -15 -2 -18z m2654 12
c10 -12 10 -15 -4 -15 -9 0 -16 7 -16 15 0 8 2 15 4 15 2 0 9 -7 16 -15z
m-2560 -72 c0 -18 -22 -21 -52 -5 -26 13 -35 31 -22 45 9 8 73 -26 74 -40z
m810 32 c0 -8 -7 -15 -15 -15 -16 0 -20 12 -8 23 11 12 23 8 23 -8z m-100 -20
c0 -8 -4 -15 -10 -15 -5 0 -10 7 -10 15 0 8 5 15 10 15 6 0 10 -7 10 -15z
m2040 11 c0 -2 3 -11 6 -20 9 -23 -13 -20 -26 4 -9 16 -8 20 5 20 8 0 15 -2
15 -4z m170 -16 c0 -5 -4 -10 -10 -10 -5 0 -10 5 -10 10 0 6 5 10 10 10 6 0
10 -4 10 -10z m-1900 -57 c0 -7 -4 -13 -10 -13 -5 0 -10 6 -10 14 0 8 -9 18
-21 21 -16 6 -18 9 -8 22 11 13 15 12 31 -9 9 -13 18 -29 18 -35z m680 27 c0
-38 19 -80 37 -80 7 0 21 16 30 35 20 42 49 49 39 9 -22 -85 -22 -83 23 -81
42 1 68 -13 57 -32 -4 -6 -18 -11 -32 -11 -32 0 -64 -17 -64 -33 1 -7 14 -28
30 -47 30 -34 38 -64 21 -75 -6 -3 -24 13 -42 35 -39 49 -54 41 -61 -31 -5
-51 -30 -91 -47 -74 -4 6 -5 38 -2 72 4 34 5 66 3 72 -6 18 -47 13 -75 -9 -26
-21 -57 -27 -57 -11 0 6 22 29 50 52 27 23 47 45 44 50 -3 5 -21 16 -40 25
-39 19 -53 39 -36 56 7 7 19 3 40 -12 42 -31 56 -19 50 44 -6 59 -2 76 18 76
9 0 14 -11 14 -30z m-820 10 c0 -5 -4 -10 -9 -10 -6 0 -13 5 -16 10 -3 6 1 10
9 10 9 0 16 -4 16 -10z m1710 -10 c0 -5 -7 -10 -16 -10 -8 0 -12 5 -9 10 3 6
10 10 16 10 5 0 9 -4 9 -10z m-1827 -14 c3 -8 -1 -20 -9 -26 -8 -7 -14 -20
-14 -30 0 -10 -6 -23 -13 -29 -11 -8 -17 -5 -27 14 -8 14 -19 24 -26 21 -7 -3
-18 2 -26 11 -12 14 -9 15 25 9 34 -6 38 -5 47 19 10 27 35 34 43 11z m349
-18 c-15 -15 -26 -4 -18 18 5 13 9 15 18 6 9 -9 9 -15 0 -24z m-562 3 c0 -5
-11 -33 -24 -62 l-25 -54 0 37 c-1 48 14 88 34 88 8 0 15 -4 15 -9z m410 -76
c-7 -8 -19 -15 -27 -15 -13 0 -13 3 -3 15 7 8 19 15 27 15 13 0 13 -3 3 -15z
m1607 9 c-3 -3 -12 -4 -19 -1 -8 3 -5 6 6 6 11 1 17 -2 13 -5z m-1851 -30 c16
-23 16 -26 1 -41 -15 -15 -18 -15 -34 -1 -10 9 -28 19 -40 22 -14 5 -23 15
-23 27 0 16 7 19 40 19 31 0 43 -5 56 -26z m2044 6 c0 -23 -25 -27 -33 -6 -4
9 1 17 11 19 9 3 18 5 20 6 1 0 2 -8 2 -19z m-1680 -20 c0 -21 -15 -27 -25
-10 -7 12 2 30 16 30 5 0 9 -9 9 -20z m137 -2 c-3 -8 -6 -5 -6 6 -1 11 2 17 5
13 3 -3 4 -12 1 -19z m1429 -27 c-11 -18 -34 -13 -41 9 -10 33 5 45 27 22 11
-11 17 -25 14 -31z m-1826 -1 c0 -16 -4 -32 -10 -35 -12 -7 -24 39 -16 61 9
23 26 7 26 -26z m50 24 c0 -8 -4 -12 -10 -9 -5 3 -10 10 -10 16 0 5 5 9 10 9
6 0 10 -7 10 -16z m310 -4 c0 -5 -9 -10 -20 -10 -11 0 -20 5 -20 10 0 6 9 10
20 10 11 0 20 -4 20 -10z m1619 -31 c-15 -29 -38 -34 -68 -16 -36 22 -33 41 9
48 49 7 74 -6 59 -32z m-2135 -20 c-13 -14 -21 -15 -45 -7 -31 11 -35 18 -19
34 8 8 21 7 45 0 31 -10 33 -12 19 -27z m2866 32 c0 -6 -4 -13 -10 -16 -5 -3
-10 1 -10 9 0 9 5 16 10 16 6 0 10 -4 10 -9z m-2490 -26 c0 -16 -6 -25 -15
-25 -18 0 -19 4 -3 30 16 26 18 25 18 -5z m-567 -20 c-17 -22 -33 -32 -33 -20
0 14 26 45 38 45 9 0 8 -7 -5 -25z m3007 16 c0 -5 -7 -14 -15 -21 -8 -6 -13
-17 -12 -23 1 -7 -11 -12 -28 -13 -16 0 -40 -4 -52 -8 -13 -4 -23 -3 -23 2 0
14 46 42 69 42 10 0 21 7 25 15 6 16 36 21 36 6z m-924 -37 c-5 -13 -10 -14
-18 -6 -6 6 -8 18 -4 28 5 13 10 14 18 6 6 -6 8 -18 4 -28z m162 0 c-4 -21
-39 -26 -45 -8 -2 7 4 19 13 28 19 20 38 8 32 -20z m-1587 3 c-13 -13 -26 -3
-16 12 3 6 11 8 17 5 6 -4 6 -10 -1 -17z m1829 19 c0 -3 -4 -8 -10 -11 -5 -3
-10 -1 -10 4 0 6 5 11 10 11 6 0 10 -2 10 -4z m-2056 -14 c2 -4 1 -23 -4 -42
-4 -19 -8 -26 -9 -15 -1 11 -4 30 -7 43 -6 21 9 32 20 14z m2626 -13 c0 -5 -4
-9 -10 -9 -5 0 -10 7 -10 16 0 8 5 12 10 9 6 -3 10 -10 10 -16z m-2692 -6 c-2
-10 -10 -18 -18 -18 -8 0 -16 8 -18 18 -2 12 3 17 18 17 15 0 20 -5 18 -17z
m1982 3 c0 -14 -24 -29 -33 -19 -3 3 -3 11 0 19 7 18 33 18 33 0z m-2445 -6
c3 -5 1 -10 -4 -10 -6 0 -11 5 -11 10 0 6 2 10 4 10 3 0 8 -4 11 -10z m214
-36 c2 -2 -7 -12 -20 -23 -20 -17 -26 -18 -38 -6 -23 22 -6 47 26 39 16 -4 30
-8 32 -10z m121 3 c0 -7 -9 -19 -20 -27 -14 -10 -20 -26 -20 -52 0 -34 -3 -38
-24 -38 -14 0 -28 -4 -31 -10 -9 -15 -25 -12 -25 4 0 7 8 16 18 18 9 3 26 23
37 44 31 63 65 95 65 61z m2620 -7 c0 -5 9 -10 20 -10 11 0 20 -7 20 -15 0
-20 -20 -19 -35 1 -10 14 -17 15 -49 4 -20 -6 -45 -9 -54 -5 -14 6 -12 10 13
21 36 16 85 18 85 4z m-700 -24 c0 -8 -4 -18 -10 -21 -5 -3 -10 -4 -10 -1 0 2
-3 11 -6 20 -4 11 -1 16 10 16 9 0 16 -6 16 -14z m408 -5 c3 -8 -1 -12 -9 -9
-7 2 -15 10 -17 17 -3 8 1 12 9 9 7 -2 15 -10 17 -17z m486 -4 c8 -12 7 -21
-6 -33 -21 -22 -94 -10 -108 17 -13 23 6 26 35 5 24 -17 45 -10 45 16 0 22 18
20 34 -5z m-3156 -15 c2 -7 -2 -10 -12 -6 -9 3 -16 11 -16 16 0 13 23 5 28
-10z m393 -7 c-1 -15 -24 -12 -29 3 -3 9 2 13 12 10 10 -1 17 -7 17 -13z m154
-15 c-3 -5 -10 -10 -16 -10 -5 0 -9 5 -9 10 0 6 7 10 16 10 8 0 12 -4 9 -10z
m-85 -21 c0 -12 -29 -24 -37 -16 -3 4 -3 13 0 21 6 16 37 11 37 -5z m2407 -11
c-3 -8 -6 -5 -6 6 -1 11 2 17 5 13 3 -3 4 -12 1 -19z m123 7 c0 -8 -7 -15 -15
-15 -16 0 -20 12 -8 23 11 12 23 8 23 -8z m-530 -15 c0 -5 -5 -10 -11 -10 -5
0 -7 5 -4 10 3 6 8 10 11 10 2 0 4 -4 4 -10z m247 -12 c-3 -8 -6 -5 -6 6 -1
11 2 17 5 13 3 -3 4 -12 1 -19z m363 6 c0 -9 -5 -14 -12 -12 -18 6 -21 28 -4
28 9 0 16 -7 16 -16z m-2926 -10 c3 -9 3 -20 0 -25 -8 -13 -34 9 -34 27 0 19
26 18 34 -2z m246 -6 c0 -6 -7 -7 -16 -4 -9 3 -18 6 -20 6 -3 0 -3 4 1 10 7
11 35 2 35 -12z m225 12 c3 -5 -3 -10 -15 -10 -12 0 -18 5 -15 10 3 6 10 10
15 10 5 0 12 -4 15 -10z m1672 -16 c6 -16 -15 -37 -29 -28 -4 3 -8 14 -8 25 0
23 28 26 37 3z m258 -4 c-3 -5 -13 -10 -21 -10 -8 0 -14 5 -14 10 0 6 9 10 21
10 11 0 17 -4 14 -10z m-85 -40 c0 -11 -7 -20 -15 -20 -15 0 -21 21 -8 33 12
13 23 7 23 -13z m175 10 c3 -5 -1 -10 -9 -10 -9 0 -16 5 -16 10 0 6 4 10 9 10
6 0 13 -4 16 -10z m-2455 -4 c0 -3 -4 -8 -10 -11 -5 -3 -10 -1 -10 4 0 6 5 11
10 11 6 0 10 -2 10 -4z m335 -15 c3 -5 1 -12 -4 -15 -13 -8 -42 4 -35 15 7 12
31 12 39 0z m-475 -51 c0 -11 -4 -20 -8 -20 -15 0 -44 38 -37 49 10 17 45 -6
45 -29z m240 20 c0 -5 -9 -19 -20 -30 -16 -16 -25 -18 -40 -10 -28 15 -25 32
4 24 16 -4 25 -1 29 10 7 18 27 22 27 6z m-161 -42 c11 -30 4 -36 -14 -12 -17
23 -19 34 -5 34 6 0 14 -10 19 -22z m2161 18 c0 -3 -4 -8 -10 -11 -5 -3 -10
-1 -10 4 0 6 5 11 10 11 6 0 10 -2 10 -4z m-1700 -16 c0 -5 -4 -10 -10 -10 -5
0 -10 5 -10 10 0 6 5 10 10 10 6 0 10 -4 10 -10z m1970 0 c0 -5 -4 -10 -10
-10 -5 0 -10 5 -10 10 0 6 5 10 10 10 6 0 10 -4 10 -10z m-2487 -78 c-21 -5
-45 21 -37 41 5 14 9 12 29 -11 19 -22 21 -28 8 -30z m577 43 c0 -8 -7 -15
-15 -15 -16 0 -20 12 -8 23 11 12 23 8 23 -8z m-130 -5 c0 -5 -7 -10 -16 -10
-8 0 -12 5 -9 10 3 6 10 10 16 10 5 0 9 -4 9 -10z m2150 0 c0 -5 -4 -10 -10
-10 -5 0 -10 5 -10 10 0 6 5 10 10 10 6 0 10 -4 10 -10z m180 -20 c0 -5 -4
-10 -10 -10 -5 0 -10 5 -10 10 0 6 5 10 10 10 6 0 10 -4 10 -10z m-2616 -9 c3
-5 -1 -14 -9 -21 -8 -7 -15 -10 -15 -7 0 3 -3 12 -6 21 -7 17 20 23 30 7z
m2226 -21 c0 -5 -9 -10 -20 -10 -11 0 -20 5 -20 10 0 6 9 10 20 10 11 0 20 -4
20 -10z m-2575 -26 c0 -10 -8 -20 -17 -22 -18 -3 -26 27 -11 42 12 11 28 0 28
-20z m225 -3 c0 -6 -4 -13 -10 -16 -5 -3 -10 1 -10 9 0 9 5 16 10 16 6 0 10
-4 10 -9z m2200 -1 c0 -5 -4 -10 -10 -10 -5 0 -10 5 -10 10 0 6 5 10 10 10 6
0 10 -4 10 -10z m-2206 -45 c3 -8 3 -22 0 -30 -7 -17 -34 -21 -34 -5 0 6 -8
10 -17 11 -14 0 -15 2 -3 6 8 3 19 12 23 19 11 18 23 18 31 -1z m2350 -26 c-8
-13 -24 -1 -24 18 0 13 3 13 15 3 8 -7 12 -16 9 -21z m-2531 -4 c-5 -16 -33
-21 -33 -7 0 13 22 32 31 26 5 -2 6 -11 2 -19z m2371 -14 c3 -5 -1 -11 -9 -15
-9 -3 -15 0 -15 9 0 16 16 20 24 6z m950 -32 c-3 -5 -10 -7 -15 -3 -5 3 -7 10
-3 15 3 5 10 7 15 3 5 -3 7 -10 3 -15z m-3155 -30 c-5 -11 -7 -28 -4 -39 4
-13 0 -22 -14 -29 -33 -18 -49 -13 -56 20 -6 26 -2 35 26 60 24 22 35 26 45
18 10 -8 11 -16 3 -30z m-273 -35 c13 -14 24 -34 24 -46 0 -16 -4 -19 -24 -14
-14 3 -28 1 -31 -5 -8 -13 -45 18 -45 37 0 12 38 54 48 54 3 0 15 -11 28 -26z
m211 -100 c-9 -9 -28 6 -21 18 4 6 10 6 17 -1 6 -6 8 -13 4 -17z m38 -30 c0
-10 -8 -20 -17 -22 -18 -3 -26 27 -11 42 12 11 28 0 28 -20z m-245 -23 c0 -25
-19 -39 -50 -36 -35 3 -37 31 -3 43 42 15 53 14 53 -7z m-13 -77 c8 -21 -13
-42 -28 -27 -13 13 -5 43 11 43 6 0 13 -7 17 -16z m-87 -33 c0 -19 -17 -38
-25 -29 -7 7 7 48 16 48 5 0 9 -9 9 -19z m890 -1 c0 -5 -8 -10 -17 -10 -15 0
-16 2 -3 10 19 12 20 12 20 0z m1510 -20 c0 -5 -2 -10 -4 -10 -3 0 -8 5 -11
10 -3 6 -1 10 4 10 6 0 11 -4 11 -10z m-1568 -37 c19 -17 24 -48 8 -58 -12 -8
-80 21 -80 34 0 6 7 11 15 11 9 0 18 7 21 15 8 19 13 19 36 -2z m-772 -22 c0
-10 -7 -21 -15 -25 -11 -4 -15 1 -15 19 0 16 6 25 15 25 8 0 15 -9 15 -19z
m1075 -52 c4 -6 5 -13 2 -16 -8 -7 -47 7 -47 18 0 13 37 11 45 -2z m-151 -8
c5 -8 -42 -67 -48 -60 -2 2 3 19 10 37 14 32 28 40 38 23z m-968 -48 c-10 -10
-19 5 -10 18 6 11 8 11 12 0 2 -7 1 -15 -2 -18z m714 7 c0 -5 -9 -10 -20 -10
-11 0 -20 5 -20 10 0 6 9 10 20 10 11 0 20 -4 20 -10z m160 -40 c21 -17 23
-21 10 -30 -11 -7 -18 -5 -27 6 -9 12 -20 14 -40 9 -27 -6 -27 -6 -9 14 23 26
34 26 66 1z m286 -45 c6 -14 -17 -45 -33 -45 -5 0 -14 14 -20 30 -11 29 -10
30 18 30 17 0 32 -6 35 -15z m-1326 -5 c0 -5 -4 -10 -10 -10 -5 0 -10 5 -10
10 0 6 5 10 10 10 6 0 10 -4 10 -10z m1170 0 c0 -5 -4 -10 -10 -10 -5 0 -10 5
-10 10 0 6 5 10 10 10 6 0 10 -4 10 -10z m-220 -15 c10 -12 16 -13 27 -4 17
14 25 8 14 -10 -5 -8 -29 -14 -57 -15 -43 -1 -49 -4 -52 -24 -2 -13 3 -24 12
-28 8 -3 12 -12 9 -20 -5 -13 -9 -12 -27 4 -11 10 -29 22 -39 25 -23 8 -34
-19 -18 -44 9 -15 8 -19 -3 -19 -19 0 -38 25 -34 47 1 10 -1 24 -6 32 -11 17
18 41 49 41 12 0 26 5 33 12 8 8 15 8 28 -3 15 -12 18 -12 28 4 13 21 20 21
36 2z m1920 5 c0 -5 -5 -10 -11 -10 -5 0 -7 5 -4 10 3 6 8 10 11 10 2 0 4 -4
4 -10z m-1490 -35 c0 -8 -7 -15 -15 -15 -8 0 -15 7 -15 15 0 8 7 15 15 15 8 0
15 -7 15 -15z m1530 -31 c0 -8 -6 -14 -14 -14 -9 0 -12 7 -9 20 6 22 23 18 23
-6z m-2400 4 c0 -7 -7 -22 -15 -32 -13 -17 -15 -17 -21 -3 -3 10 -4 24 0 32 7
18 36 20 36 3z m75 -19 c-11 -17 -35 -9 -35 11 0 18 3 19 20 10 11 -6 18 -15
15 -21z m469 15 c3 -9 6 -23 6 -32 0 -13 -3 -12 -15 4 -16 21 -19 44 -6 44 5
0 12 -7 15 -16z m2311 6 c3 -5 -1 -10 -9 -10 -9 0 -16 5 -16 10 0 6 4 10 9 10
6 0 13 -4 16 -10z m-370 -20 c-3 -5 -10 -10 -16 -10 -5 0 -9 5 -9 10 0 6 7 10
16 10 8 0 12 -4 9 -10z m-1983 -72 c-9 -9 -16 -8 -30 5 -10 9 -22 14 -25 10
-10 -10 -8 -41 3 -45 6 -2 6 -9 0 -18 -8 -12 -13 -11 -34 9 -27 26 -25 47 7
57 12 4 27 13 35 20 11 12 17 11 35 -6 16 -15 18 -23 9 -32z m1802 -3 c3 -9 0
-15 -9 -15 -8 0 -15 7 -15 15 0 8 4 15 9 15 5 0 11 -7 15 -15z m129 -15 c20
-24 18 -24 -17 -7 -14 8 -23 17 -19 20 10 11 17 8 36 -13z m-2196 4 c-3 -3
-12 -4 -19 -1 -8 3 -5 6 6 6 11 1 17 -2 13 -5z m2263 -10 c0 -8 -4 -12 -10 -9
-5 3 -10 10 -10 16 0 5 5 9 10 9 6 0 10 -7 10 -16z m-2669 -30 c-2 -10 -3 -31
-4 -46 0 -16 -3 -28 -7 -28 -10 0 -20 68 -13 86 8 21 29 11 24 -12z m184 6
c18 -20 18 -21 -3 -42 -21 -21 -21 -21 -16 -1 3 12 1 30 -5 42 -15 27 0 27 24
1z m295 -15 c-10 -12 -16 -13 -27 -3 -12 10 -11 13 9 24 26 14 37 1 18 -21z
m2597 29 c-3 -3 -12 -4 -19 -1 -8 3 -5 6 6 6 11 1 17 -2 13 -5z m-3022 -14 c3
-5 1 -10 -4 -10 -6 0 -11 5 -11 10 0 6 2 10 4 10 3 0 8 -4 11 -10z m359 -27
c-9 -50 -21 -62 -30 -29 -5 20 -1 32 12 46 26 25 26 25 18 -17z m-59 17 c-3
-5 -13 -10 -21 -10 -8 0 -14 5 -14 10 0 6 9 10 21 10 11 0 17 -4 14 -10z m175
0 c0 -5 -2 -10 -4 -10 -3 0 -8 5 -11 10 -3 6 -1 10 4 10 6 0 11 -4 11 -10z
m2437 -22 c-3 -8 -6 -5 -6 6 -1 11 2 17 5 13 3 -3 4 -12 1 -19z m-2401 -13
c-14 -14 -16 -14 -16 -2 0 9 6 17 13 20 19 7 21 -1 3 -18z m2288 4 c-3 -5 -10
-7 -15 -3 -5 3 -7 10 -3 15 3 5 10 7 15 3 5 -3 7 -10 3 -15z m-339 -17 c-2 -3
-12 -1 -22 2 -15 6 -15 9 -3 16 13 8 35 -8 25 -18z m-2210 -3 c11 -17 -1 -21
-15 -4 -8 9 -8 15 -2 15 6 0 14 -5 17 -11z m215 -31 c0 -5 -7 -8 -15 -8 -8 0
-15 5 -15 10 0 7 -7 7 -21 0 -21 -12 -49 -7 -49 8 0 21 44 29 72 13 15 -9 28
-19 28 -23z m2493 35 c-7 -2 -19 -2 -25 0 -7 3 -2 5 12 5 14 0 19 -2 13 -5z
m-2916 -35 c-3 -8 -6 -5 -6 6 -1 11 2 17 5 13 3 -3 4 -12 1 -19z m2503 12 c0
-5 -4 -10 -9 -10 -6 0 -13 5 -16 10 -3 6 1 10 9 10 9 0 16 -4 16 -10z m-2593
-32 c-3 -8 -6 -5 -6 6 -1 11 2 17 5 13 3 -3 4 -12 1 -19z m293 -3 c0 -8 -9
-15 -20 -15 -13 0 -18 5 -14 15 4 8 12 15 20 15 8 0 14 -7 14 -15z m103 -23
l38 -38 -21 -27 c-24 -30 -46 -27 -27 4 10 17 8 23 -20 45 -20 15 -30 30 -26
39 8 22 15 19 56 -23z m2497 22 c0 -17 -22 -14 -28 4 -2 7 3 12 12 12 9 0 16
-7 16 -16z m-636 -15 c-3 -5 -10 -7 -15 -3 -5 3 -7 10 -3 15 3 5 10 7 15 3 5
-3 7 -10 3 -15z m-2171 -6 c4 -3 -2 -13 -14 -21 -23 -16 -34 -10 -26 13 7 15
28 20 40 8z m-147 -26 c-18 -15 -27 -30 -24 -39 4 -8 2 -21 -2 -28 -4 -7 -3
-24 3 -37 8 -17 7 -27 -1 -35 -19 -19 -14 -28 13 -28 30 0 33 -20 6 -37 -11
-7 -22 -29 -26 -52 -6 -34 -12 -42 -43 -54 -20 -8 -50 -29 -66 -46 -25 -26
-27 -33 -16 -46 12 -14 11 -18 0 -25 -17 -11 -30 -4 -30 16 0 16 -11 18 -25 5
-6 -4 -24 -13 -42 -19 -28 -9 -35 -8 -59 14 -25 24 -26 28 -20 95 8 73 10 78
88 158 109 112 144 142 161 135 12 -4 17 -1 17 9 0 21 28 36 65 37 l30 0 -29
-23z m242 -24 c14 -41 4 -49 -21 -17 -15 20 -22 23 -28 12 -6 -10 -11 -10 -20
-1 -10 10 -8 14 7 19 10 4 23 14 28 22 10 17 20 7 34 -35z m-168 -1 c0 -26
-11 -34 -27 -21 -10 9 -10 15 -2 25 16 19 29 17 29 -4z m2190 8 c0 -5 -4 -10
-10 -10 -5 0 -10 5 -10 10 0 6 5 10 10 10 6 0 10 -4 10 -10z m450 0 c0 -5 -4
-10 -10 -10 -5 0 -10 5 -10 10 0 6 5 10 10 10 6 0 10 -4 10 -10z m110 -16 c6
-16 4 -19 -16 -19 -32 2 -40 11 -24 30 16 19 31 15 40 -11z m-2497 -72 c5 -40
3 -52 -6 -48 -7 3 -20 9 -29 12 -22 8 -23 27 -2 45 9 7 13 21 10 34 -6 25 5
42 15 23 3 -7 9 -37 12 -66z m2732 68 c-3 -5 -10 -10 -16 -10 -5 0 -9 5 -9 10
0 6 7 10 16 10 8 0 12 -4 9 -10z m-2675 -25 c0 -8 -7 -15 -15 -15 -16 0 -20
12 -8 23 11 12 23 8 23 -8z m1970 -11 c0 -8 -5 -12 -10 -9 -6 4 -8 11 -5 16 9
14 15 11 15 -7z m270 1 c0 -14 -40 -46 -49 -41 -15 10 10 46 31 46 10 0 18 -2
18 -5z m-2574 -19 c3 -8 12 -12 20 -9 8 3 14 -1 14 -9 0 -18 -68 -44 -82 -30
-15 15 2 62 23 62 11 0 22 -6 25 -14z m109 -7 c-4 -5 -13 -9 -22 -9 -13 0 -13
3 -3 15 13 15 35 11 25 -6z m2585 11 c0 -5 -4 -10 -10 -10 -5 0 -10 5 -10 10
0 6 5 10 10 10 6 0 10 -4 10 -10z m-2500 -15 c0 -8 -7 -15 -15 -15 -26 0 -18
20 13 29 1 1 2 -6 2 -14z m2910 -15 c0 -5 -7 -10 -15 -10 -8 0 -15 5 -15 10 0
6 7 10 15 10 8 0 15 -4 15 -10z m130 3 c-1 -18 -18 -35 -24 -24 -4 6 -4 16 -1
21 7 12 25 13 25 3z m-103 -45 c-3 -7 -5 -2 -5 12 0 14 2 19 5 13 2 -7 2 -19
0 -25z m-2987 7 c0 -11 -11 -15 -42 -15 -40 1 -42 2 -24 15 26 20 66 19 66 0z
m2814 0 c19 -14 18 -15 -12 -15 -22 0 -32 5 -32 15 0 19 19 19 44 0z m-714 -5
c0 -5 -7 -10 -15 -10 -8 0 -15 5 -15 10 0 6 7 10 15 10 8 0 15 -4 15 -10z
m150 -6 c0 -17 -22 -14 -28 4 -2 7 3 12 12 12 9 0 16 -7 16 -16z m260 -12 c0
-13 -12 -22 -22 -16 -10 6 -1 24 13 24 5 0 9 -4 9 -8z m-2453 -24 c16 -13 5
-38 -18 -38 -18 0 -39 27 -39 50 0 12 36 5 57 -12z m2126 15 c11 -10 -13 -33
-34 -33 -18 0 -18 1 -1 19 19 21 26 24 35 14z m167 -3 c0 -5 -5 -10 -11 -10
-5 0 -7 5 -4 10 3 6 8 10 11 10 2 0 4 -4 4 -10z m290 -15 c0 -23 -22 -29 -37
-9 -12 16 -11 19 4 25 22 8 33 2 33 -16z m600 9 c0 -8 -5 -12 -10 -9 -6 4 -8
11 -5 16 9 14 15 11 15 -7z m-3330 -14 c-10 -19 -40 -28 -40 -12 0 13 23 32
37 32 11 0 11 -5 3 -20z m2900 5 c0 -8 -7 -15 -15 -15 -9 0 -12 6 -9 15 4 8
10 15 15 15 5 0 9 -7 9 -15z m70 0 c0 -8 -4 -15 -10 -15 -5 0 -10 7 -10 15 0
8 5 15 10 15 6 0 10 -7 10 -15z m-2920 -30 c0 -8 -7 -15 -15 -15 -8 0 -15 7
-15 15 0 8 7 15 15 15 8 0 15 -7 15 -15z m326 -1 c-3 -9 -6 -20 -6 -25 0 -5
-6 -9 -14 -9 -9 0 -12 8 -8 25 2 14 11 25 19 25 10 0 13 -6 9 -16z m2244 -18
c0 -7 -9 -22 -20 -34 -11 -12 -20 -26 -20 -32 0 -5 -3 -10 -8 -10 -11 0 -2 82
10 98 12 14 38 -1 38 -22z m435 23 c10 -15 -1 -23 -20 -15 -9 3 -13 10 -10 16
8 13 22 13 30 -1z m225 1 c0 -5 -7 -10 -15 -10 -8 0 -15 5 -15 10 0 6 7 10 15
10 8 0 15 -4 15 -10z m-884 -29 c-4 -6 -14 -11 -22 -11 -12 0 -13 4 -3 21 7
14 14 18 21 11 6 -6 7 -15 4 -21z m384 -1 c0 -27 -32 -50 -59 -43 -17 4 -22 3
-17 -5 11 -18 -12 -52 -35 -52 -27 0 -35 27 -15 49 9 10 16 30 16 46 0 25 3
27 28 22 15 -3 34 -2 42 3 19 11 40 1 40 -20z m400 21 c0 -12 -20 -25 -27 -18
-7 7 6 27 18 27 5 0 9 -4 9 -9z m-895 -11 c3 -5 1 -10 -4 -10 -6 0 -11 5 -11
10 0 6 2 10 4 10 3 0 8 -4 11 -10z m-2373 -32 c-9 -9 -12 -7 -12 12 0 19 3 21
12 12 9 -9 9 -15 0 -24z m173 11 c0 -7 -8 -15 -17 -17 -18 -3 -25 18 -11 32
10 10 28 1 28 -15z m-123 -29 c5 -36 -5 -39 -20 -6 -8 19 -8 26 1 30 7 2 13 5
13 5 1 1 4 -12 6 -29z m283 0 c-4 -11 -2 -20 4 -20 6 0 11 9 11 20 0 32 36 25
48 -10 10 -28 0 -51 -13 -30 -8 13 -35 13 -35 -1 0 -6 9 -13 20 -16 24 -6 26
-29 3 -41 -14 -8 -15 -14 -4 -40 7 -17 10 -36 6 -41 -8 -14 -68 -14 -99 1 -21
9 -29 8 -44 -5 -23 -21 -32 -21 -32 -3 0 8 -13 28 -30 46 -16 18 -30 40 -30
49 1 15 2 15 13 -1 16 -21 32 -11 41 25 7 28 38 47 79 47 12 0 28 9 35 20 7
11 17 20 23 20 6 0 8 -9 4 -20z m1217 -26 c10 -57 26 -94 41 -94 8 0 25 16 38
37 13 20 34 43 46 51 20 13 23 12 29 -3 4 -10 2 -25 -5 -34 -28 -38 -51 -77
-51 -84 0 -4 26 -5 58 -2 58 6 96 -6 77 -24 -14 -12 -134 -44 -164 -42 -13 0
-30 6 -37 12 -7 6 -18 8 -24 4 -14 -9 -146 33 -160 50 -7 9 -6 16 5 25 11 9
24 8 61 -6 39 -15 47 -15 55 -3 11 18 11 32 -1 65 -12 31 -2 96 14 91 6 -2 14
-21 18 -43z m990 11 c4 -16 1 -25 -8 -25 -17 0 -27 17 -20 35 8 23 23 18 28
-10z m498 16 c0 -6 -4 -13 -10 -16 -5 -3 -10 1 -10 9 0 9 5 16 10 16 6 0 10
-4 10 -9z m210 -22 c0 -5 -4 -9 -10 -9 -5 0 -10 7 -10 16 0 8 5 12 10 9 6 -3
10 -10 10 -16z m-3270 -10 c0 -5 -4 -9 -10 -9 -5 0 -10 7 -10 16 0 8 5 12 10
9 6 -3 10 -10 10 -16z m3001 -8 c7 -18 6 -22 -9 -19 -9 2 -19 14 -20 27 -5 30
18 24 29 -8z m-93 -4 c4 -19 -20 -32 -43 -23 -13 5 -14 10 -5 26 13 25 43 23
48 -3z m-2378 -1 c0 -22 -15 -27 -44 -16 -37 14 -32 30 9 30 24 0 35 -5 35
-14z m1934 -21 c-4 -8 -10 -12 -15 -9 -14 8 -10 24 6 24 9 0 12 -6 9 -15z
m-2500 -17 c9 -35 8 -38 -18 -38 -30 0 -38 19 -18 43 20 23 28 22 36 -5z
m3194 1 c-2 -6 -8 -10 -13 -10 -5 0 -11 4 -13 10 -2 6 4 11 13 11 9 0 15 -5
13 -11z m-3520 -23 c3 -12 -1 -17 -10 -14 -7 3 -15 13 -16 22 -3 12 1 17 10
14 7 -3 15 -13 16 -22z m482 -1 c16 -19 3 -40 -16 -24 -15 13 -19 39 -5 39 5
0 14 -7 21 -15z m470 8 c0 -5 -5 -15 -10 -23 -8 -12 -10 -11 -10 8 0 12 5 22
10 22 6 0 10 -3 10 -7z m2040 -3 c0 -5 -4 -10 -10 -10 -5 0 -10 5 -10 10 0 6
5 10 10 10 6 0 10 -4 10 -10z m170 -6 c0 -9 -7 -14 -17 -12 -25 5 -28 28 -4
28 12 0 21 -6 21 -16z m250 2 c0 -9 -7 -12 -20 -9 -11 3 -20 9 -20 14 0 5 9 9
20 9 11 0 20 -6 20 -14z m-478 -28 c-15 -15 -26 -4 -18 18 5 13 9 15 18 6 9
-9 9 -15 0 -24z m-2072 13 c0 -5 -6 -14 -13 -20 -11 -8 -18 -6 -32 9 -18 20
-17 20 13 20 18 0 32 -4 32 -9z m-443 -27 c10 -21 9 -24 -7 -24 -11 0 -22 5
-25 10 -4 6 -12 9 -19 8 -11 -3 -16 3 -16 20 0 4 12 8 28 9 20 1 30 -4 39 -23z
m2319 -13 c-13 -20 -26 -11 -26 16 0 25 1 26 16 11 9 -9 13 -21 10 -27z m794
29 c0 -5 -2 -10 -4 -10 -3 0 -8 5 -11 10 -3 6 -1 10 4 10 6 0 11 -4 11 -10z
m-895 -40 c3 -5 1 -10 -4 -10 -6 0 -11 5 -11 10 0 6 2 10 4 10 3 0 8 -4 11
-10z m-2548 -57 c3 -10 15 -28 25 -40 20 -21 20 -21 -2 -28 -27 -9 -33 -3 -32
32 0 15 -5 34 -10 41 -7 8 -7 12 1 12 6 0 14 -8 18 -17z m2723 -29 c0 -16 -16
-19 -25 -4 -8 13 4 32 16 25 5 -4 9 -13 9 -21z m-2286 0 c19 -7 21 -34 3 -34
-14 0 -37 20 -37 32 0 10 13 10 34 2z m1890 -25 c-9 -10 -21 -16 -26 -13 -5 3
-2 14 8 25 9 10 21 16 26 13 5 -3 2 -14 -8 -25z m-116 -13 c-10 -7 -18 -18
-18 -25 0 -6 -4 -11 -10 -11 -13 0 -13 6 2 30 7 11 20 20 28 20 12 -1 12 -3
-2 -14z m432 -2 c0 -9 -7 -14 -17 -12 -25 5 -28 28 -4 28 12 0 21 -6 21 -16z
m-1160 -4 c0 -5 -4 -10 -10 -10 -5 0 -10 5 -10 10 0 6 5 10 10 10 6 0 10 -4
10 -10z m-1456 -27 c4 -9 1 -20 -6 -25 -21 -13 -28 -9 -28 17 0 28 24 34 34 8z
m32 -10 c-10 -10 -19 5 -10 18 6 11 8 11 12 0 2 -7 1 -15 -2 -18z m303 18 c19
-12 25 -80 7 -87 -7 -3 -26 2 -42 11 -16 8 -37 15 -47 15 -27 0 -17 34 11 38
12 2 22 -1 22 -7 0 -6 8 -11 18 -11 16 1 16 1 0 11 -10 5 -18 17 -18 24 0 17
27 20 49 6z m76 -21 c-5 -8 -11 -8 -17 -2 -6 6 -7 16 -3 22 5 8 11 8 17 2 6
-6 7 -16 3 -22z m425 21 c0 -14 -18 -23 -30 -16 -6 4 -8 11 -5 16 8 12 35 12
35 0z m-727 -34 c-3 -5 -10 -4 -15 1 -6 6 -7 16 -3 22 6 9 9 9 16 -1 4 -7 5
-17 2 -22z m647 -12 c0 -8 -4 -15 -8 -15 -13 0 -32 23 -32 37 0 11 5 11 20 3
11 -6 20 -17 20 -25z m1993 18 c9 -9 -12 -33 -29 -33 -8 0 -14 9 -14 20 0 19
28 28 43 13z m594 -38 c9 -25 -2 -27 -22 -5 -17 18 -17 20 -1 20 9 0 19 -7 23
-15z m-3337 -21 c0 -14 -12 -19 -23 -8 -9 9 4 35 14 28 5 -3 9 -12 9 -20z
m2706 -15 c3 -6 2 -15 -4 -21 -7 -7 -14 -3 -21 11 -10 17 -9 21 3 21 8 0 18
-5 22 -11z m92 -16 c-3 -27 -50 -65 -63 -51 -8 8 43 78 57 78 5 0 8 -12 6 -27z
m392 2 c8 -9 21 -13 34 -10 19 5 19 5 3 -5 -25 -16 -71 -8 -75 13 -4 21 21 23
38 2z m-3121 -36 c-24 -14 -36 11 -14 27 18 13 20 13 23 -2 2 -9 -2 -20 -9
-25z m573 17 c21 -15 14 -26 -17 -26 -27 0 -35 8 -28 26 6 17 23 17 45 0z
m-395 -12 c9 -25 -8 -33 -59 -27 -31 4 -48 10 -48 19 0 16 14 18 40 4 13 -7
19 -6 24 5 7 20 35 19 43 -1z m2173 0 c0 -8 -5 -12 -10 -9 -6 4 -8 11 -5 16 9
14 15 11 15 -7z m1109 0 c1 -1 0 -8 -4 -15 -5 -7 -23 -9 -52 -5 -56 7 -73 17
-47 27 17 6 93 1 103 -7z m-504 -24 c-3 -5 3 -16 12 -26 17 -16 18 -16 23 7
l6 24 13 -23 c11 -21 10 -24 -8 -29 -24 -6 -29 -33 -7 -33 8 0 22 -9 30 -21
14 -21 15 -21 30 10 21 40 46 41 46 1 0 -23 -5 -31 -25 -36 -13 -3 -33 -21
-44 -40 -11 -19 -28 -34 -37 -34 -9 0 -31 -12 -50 -27 -18 -16 -56 -44 -85
-63 -29 -19 -71 -52 -95 -73 -43 -39 -43 -39 -68 -20 -14 10 -26 22 -26 27 0
5 -7 14 -16 21 -10 7 -19 32 -22 64 -2 28 -8 54 -12 56 -4 3 -1 20 8 39 12 28
28 39 91 66 91 39 110 55 93 72 -23 23 -14 40 17 33 20 -4 42 0 68 13 27 14
42 17 50 10 7 -6 11 -14 8 -18z m125 -5 c0 -8 -4 -15 -10 -15 -5 0 -10 7 -10
15 0 8 5 15 10 15 6 0 10 -7 10 -15z m-3096 -11 c3 -9 6 -25 6 -37 0 -19 -2
-19 -15 7 -8 15 -15 32 -15 37 0 15 17 10 24 -7z m3292 1 c-36 -19 -47 -19
-22 0 11 8 27 15 35 15 9 0 3 -7 -13 -15z m-906 -13 c0 -5 -7 -17 -15 -28 -14
-18 -14 -18 -15 9 0 17 5 27 15 27 8 0 15 -4 15 -8z m297 -8 c-3 -3 -12 -4
-19 -1 -8 3 -5 6 6 6 11 1 17 -2 13 -5z m-2567 -17 c0 -8 -9 -22 -19 -31 -11
-10 -21 -27 -23 -39 -2 -11 -9 -22 -15 -25 -19 -6 -17 73 3 92 19 20 54 21 54
3z m369 -12 c13 -14 29 -25 37 -25 19 0 18 -29 -2 -37 -10 -4 -20 0 -26 10 -5
10 -15 17 -22 17 -20 0 -39 27 -32 45 8 21 17 19 45 -10z m1765 -1 c3 -8 2
-12 -4 -9 -6 3 -10 10 -10 16 0 14 7 11 14 -7z m-1927 -6 c5 -7 7 -24 4 -38
l-7 -24 -22 31 c-12 17 -22 34 -22 37 0 11 38 6 47 -6z m2093 -6 c0 -13 -12
-22 -22 -16 -10 6 -1 24 13 24 5 0 9 -4 9 -8z m-1618 -19 c9 -10 18 -25 21
-33 4 -10 6 -8 6 7 1 27 20 40 32 22 13 -21 11 -49 -5 -49 -7 0 -19 -7 -26
-15 -7 -9 -17 -14 -23 -12 -8 2 -36 71 -37 90 0 13 16 8 32 -10z m2383 7 c-3
-5 -11 -10 -16 -10 -6 0 -7 5 -4 10 3 6 11 10 16 10 6 0 7 -4 4 -10z m-2217
-32 c19 -19 15 -24 -28 -46 -29 -14 -40 -16 -40 -7 0 7 7 15 15 19 8 3 15 15
15 26 0 22 20 26 38 8z m1400 -5 c14 -26 4 -43 -26 -43 -14 0 -33 -7 -43 -16
-20 -18 -41 -11 -32 11 3 8 16 15 29 15 17 0 24 6 24 18 0 35 33 45 48 15z
m-1909 -35 c9 -23 -2 -48 -20 -48 -10 0 -12 53 -2 63 10 11 13 9 22 -15z
m-319 -33 c-17 -20 -60 -20 -60 1 0 11 6 15 19 11 12 -3 22 1 26 11 4 11 9 12
17 4 8 -8 8 -15 -2 -27z m885 25 c3 -5 1 -10 -4 -10 -6 0 -11 5 -11 10 0 6 2
10 4 10 3 0 8 -4 11 -10z m-734 -42 c1 -7 1 -16 0 -20 0 -5 10 -8 24 -8 21 0
25 -5 25 -30 0 -32 -22 -50 -64 -50 -30 0 -32 6 -28 70 3 41 7 50 23 50 10 0
20 -6 20 -12z m319 -17 c0 -28 -15 -49 -27 -38 -8 8 7 67 18 67 5 0 9 -13 9
-29z m97 -35 c-4 -9 -11 -16 -17 -16 -11 0 -14 33 -3 44 11 10 26 -11 20 -28z
m1913 -15 c0 -28 -17 -35 -29 -13 -11 21 -6 32 16 32 7 0 13 -9 13 -19z
m-1822 -32 c-2 -6 -8 -10 -13 -10 -5 0 -11 4 -13 10 -2 6 4 11 13 11 9 0 15
-5 13 -11z m-368 -12 c0 -7 -6 -22 -14 -33 -20 -27 -43 -6 -27 25 13 23 41 29
41 8z m2953 -2 c4 -8 2 -17 -3 -20 -6 -4 -10 3 -10 14 0 25 6 27 13 6z m-3013
-30 c0 -8 -7 -15 -15 -15 -8 0 -15 7 -15 15 0 8 7 15 15 15 8 0 15 -7 15 -15z
m2010 -6 c0 -5 -4 -9 -10 -9 -5 0 -10 7 -10 16 0 8 5 12 10 9 6 -3 10 -10 10
-16z m298 -11 c-5 -32 -28 -35 -28 -4 0 17 5 26 16 26 10 0 14 -7 12 -22z
m-385 -8 c-4 -14 3 -28 21 -45 27 -25 33 -49 16 -60 -5 -3 -10 -15 -10 -25 0
-10 -9 -25 -21 -34 -17 -11 -20 -21 -14 -45 3 -16 14 -32 23 -34 11 -3 8 -5
-8 -6 -14 0 -31 -11 -38 -22 -10 -16 -16 -19 -25 -10 -9 9 -9 14 -1 19 6 4 15
21 18 39 6 28 4 33 -20 46 -19 10 -23 16 -15 22 7 4 18 2 24 -4 17 -17 27 -13
27 9 0 12 -7 20 -17 20 -17 0 -53 27 -53 40 0 4 14 10 30 12 25 4 31 1 36 -17
4 -17 11 -21 29 -18 27 6 24 38 -5 53 -22 12 -32 37 -25 61 9 26 35 25 28 -1z
m-1789 -29 c3 -5 -1 -11 -9 -15 -15 -6 -29 7 -18 18 9 9 21 8 27 -3z m-614
-60 c0 -9 9 -27 20 -41 l19 -25 30 29 c23 22 34 27 42 19 9 -9 6 -19 -9 -40
-22 -31 -19 -45 12 -56 18 -7 18 -8 0 -28 -18 -21 -18 -21 4 -39 12 -10 22
-23 22 -29 0 -16 -26 -13 -40 4 -21 25 -30 17 -30 -25 0 -62 -26 -52 -40 15
-11 51 -13 55 -40 55 -36 0 -47 16 -26 39 15 16 15 19 1 31 -19 16 -19 36 -1
43 12 5 13 13 5 42 -12 43 -2 66 18 40 7 -11 13 -26 13 -34z m2710 -53 c0 -21
-3 -29 -10 -22 -5 5 -7 19 -4 32 9 31 14 27 14 -10z m-480 -33 c0 -14 5 -25
10 -25 19 0 10 -31 -12 -40 -13 -6 -31 -16 -42 -22 -15 -11 -19 -10 -24 1 -2
7 -13 22 -23 32 -18 18 -18 19 8 25 17 5 28 3 31 -4 2 -7 11 -12 20 -12 15 1
14 3 -2 15 -19 14 -19 15 -1 35 24 27 35 25 35 -5z m1038 -70 c24 -70 40 -68
74 9 14 32 43 54 54 43 4 -4 -2 -28 -14 -52 -34 -71 -27 -92 21 -61 37 24 72
24 75 1 2 -15 -9 -25 -48 -43 -27 -13 -50 -28 -50 -33 0 -6 21 -30 47 -53 28
-26 44 -47 39 -54 -11 -19 -33 -14 -62 13 -15 14 -36 25 -46 25 -17 0 -19 -7
-17 -52 2 -68 -8 -108 -26 -101 -10 3 -15 27 -17 71 -4 79 -16 87 -75 48 -67
-44 -125 -47 -103 -5 6 10 16 19 23 19 23 1 110 61 100 71 -5 5 -33 13 -63 19
-62 12 -91 33 -72 52 9 9 21 9 50 0 22 -7 49 -12 62 -12 20 0 22 4 16 33 -19
100 -19 119 -1 116 10 -3 23 -23 33 -54z m-1158 0 c0 -28 -17 -34 -27 -9 -3 9
0 20 8 25 19 12 19 12 19 -16z m-735 -5 c4 -6 -7 -10 -25 -10 -18 0 -29 4 -25
10 3 6 15 10 25 10 10 0 22 -4 25 -10z m275 -46 c0 -8 -6 -11 -15 -8 -8 4 -15
12 -15 20 0 8 6 11 15 8 8 -4 15 -12 15 -20z m52 -6 c-9 -9 -15 -9 -24 0 -10
10 -10 15 2 22 9 6 19 5 24 0 7 -7 6 -14 -2 -22z m-1882 -13 c37 -19 38 -25 2
-25 -16 0 -32 8 -40 20 -15 24 -3 26 38 5z m4350 -32 c-1 -32 -4 -43 -9 -33
-8 14 -4 80 5 80 2 0 4 -21 4 -47z m-1785 17 c0 -8 -10 -16 -22 -18 -22 -3
-32 16 -16 32 12 11 38 2 38 -14z m-75 -4 c0 -19 -25 -38 -47 -35 -10 1 -26
-1 -36 -6 -12 -5 -22 -2 -32 11 -10 15 -16 16 -25 7 -14 -13 -5 -33 16 -33 19
0 18 -16 -2 -24 -30 -12 -56 -6 -61 13 -3 11 -12 22 -20 25 -20 8 -6 26 21 26
12 0 26 4 32 9 5 6 34 12 64 14 30 2 63 4 73 5 9 1 17 -4 17 -12z m-631 -10
c15 -8 20 -16 12 -20 -6 -4 -11 -19 -11 -32 0 -37 -24 -24 -28 14 -2 20 -9 32
-18 32 -8 0 -14 5 -14 10 0 14 30 12 59 -4z m297 -53 c-10 -10 -19 5 -10 18 6
11 8 11 12 0 2 -7 1 -15 -2 -18z m97 2 c4 -8 2 -17 -4 -21 -12 -7 -41 15 -33
27 8 14 31 11 37 -6z m259 -27 c-7 -7 -12 -8 -12 -2 0 14 12 26 19 19 2 -3 -1
-11 -7 -17z m-1048 -25 c3 -10 8 -35 12 -55 3 -21 12 -42 19 -48 15 -12 15
-11 50 55 23 42 55 59 55 29 0 -10 -9 -37 -21 -61 -25 -52 -18 -68 21 -48 34
18 76 20 86 4 9 -15 -9 -31 -59 -49 -50 -19 -61 -49 -24 -69 13 -7 31 -28 40
-47 16 -34 16 -34 -6 -34 -13 0 -34 11 -47 25 -42 45 -60 29 -60 -51 0 -57
-16 -90 -35 -74 -9 8 -12 28 -8 71 7 76 -4 86 -63 53 -48 -27 -114 -33 -114
-10 0 18 19 33 50 41 14 3 36 15 50 26 l25 19 -24 20 c-13 11 -33 20 -45 20
-26 1 -66 33 -66 54 0 16 31 22 44 9 4 -4 25 -13 47 -19 48 -15 59 -1 41 50
-13 36 -16 89 -5 99 12 13 32 7 37 -10z m-1060 -18 c3 -9 -1 -18 -10 -22 -19
-7 -28 2 -21 22 8 19 23 19 31 0z m2076 5 c0 -5 -4 -10 -10 -10 -5 0 -10 5
-10 10 0 6 5 10 10 10 6 0 10 -4 10 -10z m-2086 -49 c3 -5 -3 -20 -14 -32
l-19 -24 -1 33 c0 31 21 45 34 23z m1987 -20 c20 -16 22 -21 10 -35 -13 -15
-16 -15 -38 5 -44 42 -19 68 28 30z m499 -36 c0 -15 -18 -30 -27 -22 -2 3 -2
15 2 26 7 23 25 19 25 -4z m-2371 -64 c13 -8 7 -51 -7 -51 -4 0 -32 -18 -61
-40 -32 -24 -58 -37 -63 -32 -5 5 -8 31 -6 58 l3 49 36 -3 c23 -2 41 3 49 13
14 17 29 19 49 6z m151 -15 c0 -21 -25 -26 -48 -10 -18 12 -22 12 -36 -2 -13
-12 -16 -13 -16 -1 0 22 10 27 57 27 30 0 43 -4 43 -14z m2307 -1 c8 -8 13
-19 11 -23 -14 -29 -52 -82 -59 -82 -14 0 -11 28 7 55 9 14 12 25 6 25 -6 0
-14 -4 -17 -10 -9 -14 -35 -13 -35 2 0 19 32 48 52 48 11 0 26 -7 35 -15z
m-2264 -125 c11 -10 -10 -50 -26 -50 -16 1 -50 48 -42 60 6 10 54 3 68 -10z
m-108 -10 c10 -12 15 -26 11 -37 -6 -15 -9 -14 -20 7 -8 18 -19 24 -35 22 -20
-2 -22 0 -11 13 17 20 33 19 55 -5z m2451 -47 c-8 -20 -22 -15 -35 13 -9 20
-9 30 0 40 10 12 14 10 26 -13 7 -15 11 -33 9 -40z m-2576 -3 c0 -21 -24 -60
-41 -65 -9 -3 -20 -12 -23 -20 -11 -30 -22 -13 -23 35 0 28 4 50 9 50 5 0 16
7 24 15 12 11 20 12 35 5 10 -6 19 -15 19 -20z m90 -12 c0 -13 -17 -9 -34 8
-23 22 -8 39 15 18 10 -9 19 -21 19 -26z m200 32 c0 -5 -4 -10 -10 -10 -5 0
-10 5 -10 10 0 6 5 10 10 10 6 0 10 -4 10 -10z m2377 -42 c30 -28 29 -42 -3
-63 l-27 -17 5 31 c3 18 1 34 -4 37 -10 6 -11 34 -1 34 4 0 17 -10 30 -22z
m-2422 -48 c4 -6 -5 -10 -20 -10 -15 0 -24 4 -20 10 3 6 12 10 20 10 8 0 17
-4 20 -10z m2263 -22 c6 -7 13 -30 17 -50 6 -31 4 -38 -8 -38 -9 0 -19 5 -22
10 -3 6 -17 10 -30 10 -13 0 -27 5 -30 10 -10 17 4 46 28 58 29 14 33 14 45 0z
m-128 -40 c0 -5 -4 -8 -10 -8 -5 0 -10 10 -10 23 0 18 2 19 10 7 5 -8 10 -18
10 -22z m450 22 c0 -5 -7 -10 -15 -10 -8 0 -15 5 -15 10 0 6 7 10 15 10 8 0
15 -4 15 -10z m-2786 -29 c3 -5 -1 -11 -9 -15 -15 -6 -29 7 -18 18 9 9 21 8
27 -3z m3081 0 c7 -12 -12 -24 -25 -16 -11 7 -4 25 10 25 5 0 11 -4 15 -9z
m-501 -27 c3 -8 2 -12 -4 -9 -6 3 -10 10 -10 16 0 14 7 11 14 -7z m-1734 -24
c0 -5 -9 -10 -20 -10 -11 0 -20 5 -20 10 0 6 9 10 20 10 11 0 20 -4 20 -10z
m1946 -19 c-10 -16 -36 -13 -36 3 0 17 21 27 34 16 4 -5 5 -13 2 -19z m-121
-1 c7 -12 -12 -40 -27 -40 -16 0 -21 32 -7 41 18 12 26 11 34 -1z m519 -11
c-3 -5 -10 -7 -15 -3 -5 3 -7 10 -3 15 3 5 10 7 15 3 5 -3 7 -10 3 -15z m-590
-20 c-10 -16 -24 -9 -24 12 0 18 2 19 15 9 8 -7 12 -16 9 -21z m240 16 c3 -9
0 -15 -9 -15 -8 0 -15 7 -15 15 0 8 4 15 9 15 5 0 11 -7 15 -15z m-1969 -35
c-5 -8 -11 -8 -17 -2 -6 6 -7 16 -3 22 5 8 11 8 17 2 6 -6 7 -16 3 -22z m85
-10 c0 -5 -7 -10 -16 -10 -8 0 -12 5 -9 10 3 6 10 10 16 10 5 0 9 -4 9 -10z
m380 0 c0 -5 -4 -10 -10 -10 -5 0 -10 5 -10 10 0 6 5 10 10 10 6 0 10 -4 10
-10z m1295 -9 c3 -5 1 -12 -5 -16 -5 -3 -10 1 -10 9 0 18 6 21 15 7z m209 -7
c17 -7 22 -54 6 -54 -6 0 -20 -11 -32 -25 -12 -14 -25 -25 -30 -25 -16 0 -7
30 12 40 28 15 25 32 -4 24 -31 -7 -45 14 -21 33 20 14 44 17 69 7z m294 -11
c2 -8 -5 -13 -17 -13 -12 0 -21 6 -21 16 0 18 31 15 38 -3z m-123 -3 c3 -5 -1
-10 -9 -10 -9 0 -16 5 -16 10 0 6 4 10 9 10 6 0 13 -4 16 -10z m203 -2 c-5
-14 -68 -30 -68 -17 0 11 31 28 53 29 10 0 17 -5 15 -12z m232 -14 c0 -8 -4
-12 -10 -9 -5 3 -10 10 -10 16 0 5 5 9 10 9 6 0 10 -7 10 -16z m-2675 -4 c11
-17 -5 -32 -21 -19 -7 6 -11 15 -8 20 7 12 21 11 29 -1z m120 -31 c4 -6 5 -12
2 -15 -7 -7 -37 7 -37 17 0 13 27 11 35 -2z m78 -9 c-3 -11 -14 -20 -24 -20
-26 0 -24 19 4 30 12 5 23 9 24 9 0 1 -1 -8 -4 -19z m217 10 c0 -5 -4 -10 -10
-10 -5 0 -10 5 -10 10 0 6 5 10 10 10 6 0 10 -4 10 -10z m1500 -24 c0 -14 -5
-28 -10 -31 -13 -8 -24 20 -16 40 9 24 26 17 26 -9z m860 -18 c0 -14 -18 -9
-24 8 -11 28 -6 39 9 20 8 -11 15 -23 15 -28z m-490 7 c0 -8 -9 -15 -21 -15
-16 0 -19 -4 -14 -20 3 -11 2 -20 -3 -20 -18 0 -21 14 -6 41 15 31 44 39 44
14z m360 0 c7 -9 11 -18 8 -20 -9 -10 -38 7 -38 21 0 18 14 18 30 -1z m-287
-14 c3 -14 1 -18 -9 -14 -15 6 -18 16 -7 26 9 10 10 9 16 -12z m237 -17 c0
-17 -22 -14 -28 4 -2 7 3 12 12 12 9 0 16 -7 16 -16z m-2560 -8 c0 -8 -7 -16
-15 -20 -8 -3 -15 -12 -15 -21 0 -14 -21 -21 -32 -9 -3 3 -1 18 5 35 8 20 18
29 34 29 13 0 23 -6 23 -14z m1600 4 c0 -5 -4 -10 -10 -10 -5 0 -10 5 -10 10
0 6 5 10 10 10 6 0 10 -4 10 -10z m100 -15 c0 -26 -14 -33 -25 -15 -9 14 1 40
15 40 5 0 10 -11 10 -25z m-1365 5 c3 -5 -1 -10 -11 -10 -9 0 -23 -8 -30 -17
-7 -10 -16 -15 -20 -10 -9 8 25 46 43 46 6 1 15 -3 18 -9z m-255 -25 c16 -19
5 -34 -20 -28 -20 5 -26 23 -13 36 10 11 19 8 33 -8z m1711 -35 c3 -19 10 -43
14 -52 5 -13 3 -18 -9 -18 -9 0 -16 6 -16 13 0 7 -9 18 -20 25 -19 12 -27 51
-13 66 16 16 38 -1 44 -34z m864 20 c-3 -5 -13 -6 -21 -3 -12 4 -13 8 -3 14
15 9 32 2 24 -11z m-2435 -5 c0 -8 -7 -15 -15 -15 -9 0 -12 6 -9 15 4 8 10 15
15 15 5 0 9 -7 9 -15z m300 11 c0 -9 -40 -13 -46 -5 -3 5 6 9 20 9 14 0 26 -2
26 -4z m1548 -14 c2 -7 -3 -12 -12 -12 -9 0 -16 7 -16 16 0 17 22 14 28 -4z
m-1688 -26 c0 -8 -4 -17 -9 -21 -12 -7 -24 12 -16 25 9 15 25 12 25 -4z m1920
4 c0 -5 -7 -10 -16 -10 -8 0 -12 5 -9 10 3 6 10 10 16 10 5 0 9 -4 9 -10z
m-2575 -10 c3 -6 -1 -13 -10 -16 -19 -8 -30 0 -20 15 8 14 22 14 30 1z m2255
-11 c0 -5 -7 -9 -15 -9 -8 0 -15 7 -15 15 0 9 6 12 15 9 8 -4 15 -10 15 -15z
m420 17 c0 -3 -4 -8 -10 -11 -5 -3 -10 -1 -10 4 0 6 5 11 10 11 6 0 10 -2 10
-4z m165 -6 c3 -5 1 -10 -4 -10 -6 0 -11 5 -11 10 0 6 2 10 4 10 3 0 8 -4 11
-10z m-53 -25 c5 -22 2 -25 -23 -25 -33 0 -34 2 -17 30 17 27 35 25 40 -5z
m-1358 3 c12 -46 40 -125 48 -133 5 -6 23 7 46 34 27 32 43 43 55 38 24 -9 21
-31 -8 -65 -46 -54 -29 -77 34 -46 30 15 34 15 48 1 14 -14 13 -18 -18 -36
-19 -12 -39 -21 -45 -21 -6 0 -17 -6 -23 -14 -9 -11 -4 -20 25 -44 24 -20 35
-36 31 -46 -9 -23 -19 -20 -62 14 -37 29 -39 30 -57 13 -19 -17 -20 -17 -34 2
-8 10 -14 25 -14 32 0 14 -43 16 -75 4 -24 -10 -78 14 -72 32 2 7 14 13 28 15
78 9 90 29 38 61 -29 18 -69 66 -69 84 0 15 19 6 48 -23 30 -30 62 -40 62 -19
0 5 -5 30 -11 54 -12 46 -7 75 11 75 6 0 12 -6 14 -12z m716 3 c0 -12 -20 -25
-27 -18 -7 7 6 27 18 27 5 0 9 -4 9 -9z m-2279 -34 c-13 -13 -26 -3 -16 12 3
6 11 8 17 5 6 -4 6 -10 -1 -17z m464 3 c-4 -7 -65 -20 -65 -14 0 1 7 9 15 17
14 15 59 12 50 -3z m85 -5 c10 -13 9 -15 -9 -15 -12 0 -21 6 -21 15 0 8 4 15
9 15 5 0 14 -7 21 -15z m155 6 c3 -5 1 -12 -4 -15 -5 -3 -11 1 -15 9 -6 16 9
21 19 6z m1633 -2 c-2 -6 -8 -10 -13 -10 -5 0 -11 4 -13 10 -2 6 4 11 13 11 9
0 15 -5 13 -11z m142 4 c0 -5 -7 -16 -15 -26 -7 -11 -11 -25 -8 -33 3 -8 -1
-14 -10 -14 -9 0 -22 -3 -31 -6 -25 -10 -19 10 17 49 31 35 47 46 47 30z
m-2410 -18 c0 -8 -7 -15 -15 -15 -16 0 -20 12 -8 23 11 12 23 8 23 -8z m109
-46 c-25 -20 -37 -25 -47 -17 -15 13 4 42 24 34 7 -3 20 6 31 20 15 21 19 22
22 7 2 -10 -10 -28 -30 -44z m2530 30 c-9 -17 -39 -27 -39 -13 0 18 22 42 35
38 11 -5 12 -11 4 -25z m341 16 c0 -8 -4 -15 -10 -15 -5 0 -10 7 -10 15 0 8 5
15 10 15 6 0 10 -7 10 -15z m-2396 -35 c-14 -14 -39 14 -29 31 5 8 12 6 23 -5
11 -11 13 -19 6 -26z m2181 30 c-3 -5 -10 -10 -16 -10 -5 0 -9 5 -9 10 0 6 7
10 16 10 8 0 12 -4 9 -10z m-225 -10 c0 -5 -4 -10 -10 -10 -5 0 -10 5 -10 10
0 6 5 10 10 10 6 0 10 -4 10 -10z m-2260 -25 c0 -8 -7 -15 -15 -15 -8 0 -15 7
-15 15 0 8 7 15 15 15 8 0 15 -7 15 -15z m99 1 c8 -10 9 -16 1 -21 -5 -3 -10
-17 -10 -31 0 -20 -3 -23 -17 -15 -10 5 -26 12 -36 15 -17 6 -17 8 5 35 26 33
40 38 57 17z m321 -22 c0 -8 -4 -14 -10 -14 -5 0 -10 9 -10 21 0 11 5 17 10
14 6 -3 10 -13 10 -21z m2240 0 c0 -17 -22 -14 -28 4 -2 7 3 12 12 12 9 0 16
-7 16 -16z m90 -5 c0 -5 -7 -9 -15 -9 -8 0 -15 7 -15 15 0 9 6 12 15 9 8 -4
15 -10 15 -15z m-2530 -4 c0 -16 -9 -19 -34 -9 -20 8 -11 24 15 24 10 0 19 -7
19 -15z m157 -51 c-9 -9 -28 6 -21 18 4 6 10 6 17 -1 6 -6 8 -13 4 -17z m2083
22 c0 -2 -7 -9 -15 -16 -12 -10 -15 -10 -15 4 0 9 7 16 15 16 8 0 15 -2 15 -4z
m-440 -16 c0 -5 -4 -10 -10 -10 -5 0 -10 5 -10 10 0 6 5 10 10 10 6 0 10 -4
10 -10z m158 -2 c-6 -18 -28 -21 -28 -4 0 9 7 16 16 16 9 0 14 -5 12 -12z
m405 -7 c-2 -6 -4 -17 -5 -23 -2 -8 7 -12 25 -10 21 3 27 -1 27 -15 0 -11 -5
-24 -12 -31 -14 -14 -54 -16 -63 -2 -3 5 -12 7 -20 3 -18 -6 -21 32 -4 43 6 3
9 15 6 25 -3 11 1 20 12 22 23 6 36 1 34 -12z m-2669 -6 c4 -11 -1 -15 -19
-15 -16 0 -25 6 -25 15 0 8 9 15 19 15 10 0 21 -7 25 -15z m550 7 c3 -5 2 -22
-3 -38 -7 -29 -8 -29 -19 -7 -16 30 -15 53 2 53 8 0 17 -4 20 -8z m1826 -8 c0
-17 -22 -14 -28 4 -2 7 3 12 12 12 9 0 16 -7 16 -16z m-2540 -3 c0 -5 -7 -14
-16 -22 -13 -10 -17 -10 -25 2 -14 23 -11 29 16 29 14 0 25 -4 25 -9z m2618
-18 c-2 -10 -11 -19 -21 -21 -16 -3 -17 -1 -5 17 16 25 31 27 26 4z m92 -8
c11 -13 10 -21 0 -43 -8 -15 -14 -31 -14 -37 -1 -5 -8 -11 -18 -13 -14 -3 -15
4 -11 40 8 73 17 84 43 53z m-2432 -7 c-7 -20 -48 -23 -48 -4 0 11 9 16 26 16
16 0 24 -5 22 -12z m152 -3 c0 -8 -6 -15 -14 -15 -20 0 -29 17 -14 23 22 9 28
7 28 -8z m1927 9 c-3 -3 -12 -4 -19 -1 -8 3 -5 6 6 6 11 1 17 -2 13 -5z
m-2287 -19 c0 -16 -27 -32 -37 -21 -7 7 16 36 28 36 5 0 9 -7 9 -15z m486 3
c4 -6 -1 -17 -11 -25 -20 -14 -16 -16 28 -13 33 2 36 -17 8 -51 -17 -21 -22
-22 -40 -11 -32 19 -46 15 -26 -8 17 -19 17 -21 0 -40 -21 -24 -38 -25 -54 -6
-10 12 -8 19 9 36 13 13 19 28 15 39 -3 12 0 21 10 25 8 3 15 16 15 30 0 31
32 48 46 24z m-1678 -21 c2 -10 -3 -17 -12 -17 -10 0 -16 9 -16 21 0 24 23 21
28 -4z m1462 -5 c0 -19 -18 -42 -32 -42 -10 0 -11 44 -1 53 13 14 33 7 33 -11z
m-1266 -1 c3 -5 -1 -11 -9 -15 -9 -3 -15 0 -15 9 0 16 16 20 24 6z m3304 -9
c2 -7 -3 -12 -12 -12 -9 0 -16 7 -16 16 0 17 22 14 28 -4z m102 8 c0 -5 -4
-10 -10 -10 -5 0 -10 5 -10 10 0 6 5 10 10 10 6 0 10 -4 10 -10z m-2270 -19
c0 -11 -5 -23 -11 -27 -15 -9 -33 12 -26 30 9 23 37 20 37 -3z m228 0 c25 -22
28 -31 9 -31 -16 0 -57 -45 -57 -62 0 -6 -3 -8 -7 -4 -10 9 -4 76 8 98 12 22
18 22 47 -1z m2122 -19 c0 -9 -4 -23 -9 -30 -6 -11 -11 -10 -25 3 -16 16 -16
19 0 36 19 21 34 17 34 -9z m250 13 c0 -17 -38 -35 -58 -27 -10 3 -9 9 4 23
21 23 54 25 54 4z m-3340 -10 c0 -8 -7 -15 -15 -15 -8 0 -15 7 -15 15 0 8 7
15 15 15 8 0 15 -7 15 -15z m622 0 c0 -5 -5 -11 -11 -13 -6 -2 -11 4 -11 13 0
9 5 15 11 13 6 -2 11 -8 11 -13z m178 -60 c0 -44 -1 -45 -22 -33 -13 7 -30 12
-38 13 -14 0 -16 7 -11 34 1 8 43 28 64 30 4 1 7 -19 7 -44z m410 -5 c0 -5 -2
-10 -4 -10 -3 0 -8 5 -11 10 -3 6 -1 10 4 10 6 0 11 -4 11 -10z m-75 -11 c4
-5 -4 -20 -18 -33 l-24 -22 -1 33 c-1 26 3 33 18 33 10 0 22 -5 25 -11z m-455
-34 c0 -8 -6 -15 -14 -15 -17 0 -28 14 -19 24 12 12 33 6 33 -9z m2446 0 c8
-20 -13 -45 -38 -45 -27 0 -35 30 -13 46 25 18 44 18 51 -1z m-2266 -30 c0 -8
-9 -15 -20 -15 -11 0 -20 7 -20 15 0 8 9 15 20 15 11 0 20 -7 20 -15z m158 -1
c-9 -9 -21 -13 -27 -9 -16 10 -3 25 22 25 20 0 20 -1 5 -16z m315 7 c25 -10
45 -46 33 -59 -4 -3 -20 -1 -36 5 -44 16 -53 -2 -29 -56 28 -63 24 -124 -7
-103 -6 4 -16 35 -24 69 -14 70 -32 84 -56 47 -20 -30 -70 -58 -90 -50 -23 9
-16 34 19 60 17 14 41 39 52 55 11 17 27 32 35 35 29 7 79 6 103 -3z m1587
-16 c0 -26 -14 -33 -25 -15 -9 14 1 40 15 40 5 0 10 -11 10 -25z m-2683 -30
c3 -9 3 -18 1 -21 -9 -9 -38 8 -38 22 0 19 29 18 37 -1z m2919 -7 c4 -6 -6
-22 -25 -37 -17 -14 -31 -34 -31 -44 0 -10 -5 -15 -10 -12 -13 8 -2 47 16 58
8 4 14 17 14 27 0 22 24 27 36 8z m-212 -4 c9 -3 16 -14 16 -24 0 -11 5 -22
10 -25 13 -8 13 -25 -1 -25 -6 0 -13 9 -16 21 -4 12 -11 18 -20 15 -23 -9 -34
3 -20 24 6 11 13 20 14 20 1 0 8 -3 17 -6z m-2694 -59 c0 -9 -6 -12 -15 -9 -8
4 -12 10 -9 15 8 14 24 10 24 -6z m80 -16 c0 -5 -7 -9 -15 -9 -15 0 -20 12 -9
23 8 8 24 -1 24 -14z m2640 -24 c0 -8 -4 -15 -10 -15 -5 0 -10 7 -10 15 0 8 5
15 10 15 6 0 10 -7 10 -15z m210 -3 c0 -5 -9 -27 -20 -50 -14 -28 -25 -40 -35
-36 -21 9 -19 22 13 59 27 33 42 43 42 27z m-340 -52 c0 -41 -7 -49 -27 -29
-8 8 -8 19 0 40 16 41 27 36 27 -11z m-2707 15 c7 -16 -8 -29 -23 -20 -15 9
-12 35 4 35 8 0 16 -7 19 -15z m2847 5 c0 -5 -2 -10 -4 -10 -3 0 -8 5 -11 10
-3 6 -1 10 4 10 6 0 11 -4 11 -10z m-2726 -25 c4 -10 -1 -15 -14 -15 -11 0
-20 7 -20 15 0 8 6 15 14 15 8 0 16 -7 20 -15z m2514 -4 c3 -8 -1 -12 -9 -9
-7 2 -15 10 -17 17 -3 8 1 12 9 9 7 -2 15 -10 17 -17z m-2438 -21 c0 -23 -4
-24 -31 -10 -27 15 -24 30 6 30 18 0 25 -5 25 -20z m340 5 c0 -8 -4 -15 -10
-15 -5 0 -10 7 -10 15 0 8 5 15 10 15 6 0 10 -7 10 -15z m1960 -30 c14 -19 14
-19 -2 -6 -10 7 -18 18 -18 24 0 6 1 8 3 6 1 -2 9 -13 17 -24z m80 -9 c-14
-14 -24 0 -16 21 6 15 8 15 16 3 6 -9 5 -19 0 -24z m-2581 -7 c31 -11 39 -23
21 -34 -11 -7 -60 23 -60 36 0 11 1 11 39 -2z m2679 -58 c-17 -6 -30 17 -23
40 7 22 8 22 20 -7 7 -17 8 -31 3 -33z m380 23 c3 -25 -41 -80 -56 -70 -19 11
-14 37 8 43 13 4 20 14 20 30 0 29 24 27 28 -3z m-2658 2 c0 -21 -21 -31 -30
-15 -5 7 -6 17 -4 21 9 14 34 9 34 -6z m2370 -17 c8 -33 34 -35 57 -5 l20 25
13 -25 c20 -36 -9 -55 -80 -51 -52 2 -55 3 -58 30 -6 52 37 76 48 26z m-2583
15 c-3 -3 -12 -4 -19 -1 -8 3 -5 6 6 6 11 1 17 -2 13 -5z m-207 -18 c0 -20
-19 -31 -32 -18 -6 6 -7 15 -4 21 10 16 36 13 36 -3z m128 -10 c3 -13 -1 -17
-14 -14 -11 2 -20 11 -22 22 -3 13 1 17 14 14 11 -2 20 -11 22 -22z m245 -56
c6 -22 -8 -37 -18 -20 -3 5 -17 10 -30 10 -12 0 -25 7 -29 15 -3 10 1 15 14
15 10 0 22 5 25 10 9 14 31 -4 38 -30z m3275 28 c18 -18 14 -28 -12 -28 -13 0
-26 -6 -29 -12 -3 -9 -7 -6 -12 6 -6 13 -3 23 10 32 23 17 28 17 43 2z m-3398
-23 c-7 -8 -16 -15 -21 -15 -5 0 -6 7 -3 15 4 8 13 15 21 15 13 0 13 -3 3 -15z
m2720 -5 c0 -11 -7 -20 -15 -20 -18 0 -19 12 -3 28 16 16 18 15 18 -8z m-2483
-12 c-3 -8 -6 -5 -6 6 -1 11 2 17 5 13 3 -3 4 -12 1 -19z m-357 -8 c0 -5 -4
-10 -10 -10 -5 0 -10 5 -10 10 0 6 5 10 10 10 6 0 10 -4 10 -10z m2925 -11 c4
-11 4 -23 1 -26 -8 -9 -36 17 -36 33 0 22 28 16 35 -7z m-2985 1 c0 -5 -9 -10
-21 -10 -11 0 -17 5 -14 10 3 6 13 10 21 10 8 0 14 -4 14 -10z m100 -20 c11
-7 12 -12 3 -21 -13 -13 -33 -4 -33 17 0 16 9 18 30 4z m3255 0 c3 -6 -4 -10
-17 -10 -18 0 -20 2 -8 10 19 12 18 12 25 0z m-695 -10 c11 -6 31 -22 44 -35
14 -14 30 -25 35 -25 6 0 8 -7 5 -15 -8 -20 -31 -19 -43 3 -8 14 -12 15 -23 4
-10 -10 -10 -17 0 -32 20 -32 14 -35 -13 -6 -29 31 -31 42 -10 50 20 7 19 22
-5 46 -22 22 -19 25 10 10z m773 3 c-7 -2 -21 -2 -30 0 -10 3 -4 5 12 5 17 0
24 -2 18 -5z m-3133 -19 c0 -2 -9 -4 -21 -4 -11 0 -18 4 -14 10 5 8 35 3 35
-6z m2498 -20 c-8 -9 -24 -14 -34 -12 -17 3 -17 5 5 27 17 17 26 20 34 12 8
-8 7 -15 -5 -27z m-2922 15 c3 -6 2 -15 -2 -19 -12 -12 -38 5 -30 19 9 14 23
14 32 0z m339 -6 c19 -9 35 -23 35 -30 0 -16 -12 -17 -27 -2 -20 20 -32 1 -20
-31 6 -16 8 -32 5 -36 -10 -10 -28 6 -28 25 0 15 -8 17 -60 13 -53 -4 -59 -2
-54 12 7 17 44 23 44 6 0 -5 7 -10 15 -10 8 0 15 8 15 17 0 14 27 53 36 53 2
0 19 -8 39 -17z m132 1 c1 -5 -2 -16 -7 -24 -12 -20 -35 2 -26 25 6 17 27 16
33 -1z m-358 -8 c10 -11 8 -16 -5 -24 -11 -6 -15 -17 -11 -31 7 -27 -10 -27
-43 0 l-25 21 28 24 c33 28 40 29 56 10z m3554 -6 c14 -21 14 -21 20 2 5 17 9
20 18 11 8 -8 7 -19 -7 -42 -10 -17 -22 -31 -27 -31 -4 0 -21 -9 -36 -21 -16
-12 -37 -19 -47 -17 -16 3 -13 7 14 21 28 15 32 23 32 57 0 44 11 51 33 20z
m-581 -20 c-7 -45 -52 -37 -52 10 0 8 20 16 46 19 6 1 9 -11 6 -29z m-92 5 c0
-8 -7 -15 -15 -15 -9 0 -12 6 -9 15 4 8 10 15 15 15 5 0 9 -7 9 -15z m-2570
-60 c0 -19 0 -38 1 -42 1 -13 -18 -14 -23 -1 -8 19 3 78 13 78 5 0 9 -16 9
-35z m2290 15 c0 -5 7 -10 15 -10 8 0 15 -8 15 -17 0 -13 -9 -19 -30 -20 -32
-2 -47 15 -36 42 6 17 36 21 36 5z m420 -23 c0 -18 -38 -77 -50 -77 -15 0 -12
32 5 54 8 11 12 28 9 39 -5 16 -3 17 15 8 12 -7 21 -17 21 -24z m-2028 -2 c0
-5 -5 -11 -11 -13 -6 -2 -11 4 -11 13 0 9 5 15 11 13 6 -2 11 -8 11 -13z
m1846 -13 c2 -12 -1 -22 -7 -22 -6 0 -8 7 -5 15 4 8 1 15 -5 15 -6 0 -11 5
-11 11 0 20 25 3 28 -19z m77 16 c26 -12 32 -23 15 -33 -5 -3 -10 -15 -10 -26
0 -10 -4 -19 -10 -19 -5 0 -10 11 -10 24 0 14 -4 28 -10 31 -10 6 -14 35 -5
35 2 0 16 -5 30 -12z m505 -10 c0 -30 -15 -52 -28 -44 -8 4 -8 16 0 36 12 35
28 40 28 8z m-2990 2 c0 -5 -5 -10 -11 -10 -5 0 -7 5 -4 10 3 6 8 10 11 10 2
0 4 -4 4 -10z m-520 -29 c0 -16 -19 -23 -40 -16 -30 10 -24 25 10 25 17 0 30
-4 30 -9z m355 -21 c9 -17 13 -35 10 -40 -11 -18 -31 -11 -45 15 -11 20 -11
27 0 40 17 20 17 20 35 -15z m-195 -5 c0 -8 -9 -19 -19 -24 -26 -14 -40 18
-15 36 19 14 34 9 34 -12z m2550 -17 c0 -4 18 -13 40 -19 31 -10 40 -17 40
-35 0 -20 -4 -22 -44 -21 -24 1 -40 5 -35 8 6 3 3 11 -6 19 -8 7 -15 23 -15
36 0 12 -5 26 -10 29 -6 4 -7 11 -4 17 7 11 34 -16 34 -34z m-2478 5 c2 -20 8
-27 20 -25 24 4 32 -17 14 -37 -22 -24 -20 -29 12 -33 35 -4 42 -40 12 -61
l-22 -15 22 -22 c23 -23 22 -43 -2 -48 -22 -4 -52 28 -39 41 16 16 13 37 -4
37 -8 0 -15 -7 -15 -15 0 -24 -49 -31 -65 -9 -12 17 -11 22 11 45 17 18 21 28
13 36 -13 13 -4 33 17 33 17 0 18 23 3 51 -11 22 -6 49 10 49 5 0 11 -12 13
-27z m-302 -3 c0 -11 -4 -20 -9 -20 -14 0 -23 18 -16 30 10 17 25 11 25 -10z
m1087 4 c3 -9 1 -25 -5 -35 -8 -13 -8 -19 0 -21 6 -2 8 -10 4 -16 -13 -22 -26
-13 -26 18 0 18 -6 33 -15 36 -8 4 -15 12 -15 20 0 20 49 18 57 -2z m-957 -19
c0 -7 -7 -18 -15 -25 -12 -10 -18 -10 -30 0 -14 12 -14 15 1 31 17 19 44 15
44 -6z m525 -5 c3 -5 -1 -10 -10 -10 -9 0 -13 5 -10 10 3 6 8 10 10 10 2 0 7
-4 10 -10z m2375 -16 c0 -18 -14 -18 -29 0 -9 11 -9 15 1 19 17 6 28 -1 28
-19z m-2511 2 c19 -22 -5 -96 -30 -96 -5 0 -9 9 -9 20 0 11 -6 29 -12 40 -11
16 -9 22 7 34 25 19 30 19 44 2z m-295 -15 c17 -19 17 -21 -18 -56 -22 -22
-36 -45 -36 -60 0 -33 -28 -33 -36 0 -4 17 -1 32 10 44 9 10 16 29 16 42 0 47
35 63 64 30z m472 -16 c-7 -18 -26 -20 -26 -2 0 18 24 41 28 27 2 -6 1 -17 -2
-25z m2061 18 c3 -7 -8 -18 -24 -25 -15 -7 -31 -17 -35 -23 -4 -5 -10 -6 -14
-3 -3 4 4 21 17 37 24 30 49 36 56 14z m-1957 -7 c0 -8 -7 -17 -16 -20 -23 -9
-24 -8 -24 14 0 13 7 20 20 20 11 0 20 -6 20 -14z m193 2 c18 -9 27 -21 28
-38 2 -29 -1 -53 -7 -59 -8 -9 -104 43 -104 56 0 18 33 30 38 15 2 -7 8 -12
13 -12 5 0 2 11 -7 25 -19 29 -6 33 39 13z m487 -14 c0 -14 -4 -23 -10 -19 -5
3 -10 15 -10 26 0 10 5 19 10 19 6 0 10 -12 10 -26z m-1420 7 c0 -6 -5 -13
-10 -16 -6 -4 -10 -14 -9 -23 4 -39 -2 -44 -21 -19 -20 26 -25 48 -13 60 10
10 53 8 53 -2z m2910 -6 c7 -8 8 -15 2 -15 -5 0 -15 7 -22 15 -7 8 -8 15 -2
15 5 0 15 -7 22 -15z m-1668 -37 c-6 -6 -16 -7 -22 -3 -9 6 -9 9 1 16 17 10
34 0 21 -13z m-727 -8 c3 -5 1 -10 -4 -10 -6 0 -11 5 -11 10 0 6 2 10 4 10 3
0 8 -4 11 -10z m81 -31 c10 -17 -13 -36 -27 -22 -12 12 -4 33 11 33 5 0 12 -5
16 -11z m114 -24 c0 -8 -4 -23 -9 -33 -6 -9 -12 -29 -16 -44 -3 -16 -12 -28
-20 -28 -19 0 -19 19 0 44 8 11 15 29 15 41 0 12 3 25 7 28 11 12 23 8 23 -8z
m-727 -36 c3 -12 0 -22 -9 -26 -20 -8 -27 2 -19 26 8 27 21 27 28 0z m57 -14
c0 -7 -6 -18 -14 -24 -19 -16 -30 2 -22 35 6 21 9 24 21 14 8 -7 15 -18 15
-25z m834 22 c15 -11 16 -15 4 -25 -18 -14 -55 8 -44 26 9 15 18 15 40 -1z
m1926 9 c0 -11 -19 -15 -25 -6 -3 5 1 10 9 10 9 0 16 -2 16 -4z m-2386 -33
c-9 -36 -21 -50 -34 -37 -13 13 10 64 28 64 8 0 10 -9 6 -27z m406 17 c0 -5
-9 -10 -21 -10 -11 0 -17 5 -14 10 3 6 13 10 21 10 8 0 14 -4 14 -10z m-330
-21 c0 -5 -4 -9 -10 -9 -5 0 -10 7 -10 16 0 8 5 12 10 9 6 -3 10 -10 10 -16z
m-296 -5 c17 -7 22 -39 7 -48 -12 -8 -84 18 -88 31 -6 17 51 29 81 17z m990
-18 c10 4 16 1 16 -9 0 -11 -9 -15 -30 -15 -35 1 -45 11 -35 36 6 16 7 16 19
-1 8 -10 20 -15 30 -11z m1759 -11 c-4 -15 -36 -12 -41 3 -3 9 3 13 19 10 13
-1 23 -7 22 -13z m-2151 -43 c-10 -15 -22 -36 -28 -46 -21 -41 -36 -31 -31 20
6 55 28 79 58 63 18 -9 18 -11 1 -37z m2088 11 c0 -12 -7 -13 -27 -8 -33 8
-37 11 -29 23 9 14 56 2 56 -15z m-2450 3 c0 -8 8 -17 17 -20 12 -5 14 -9 5
-18 -14 -14 -92 -20 -92 -7 0 5 9 9 20 9 13 0 22 9 26 25 7 27 24 35 24 11z
m577 -8 c9 -13 15 -58 8 -58 -13 0 -56 51 -50 59 9 15 30 14 42 -1z m-452 -7
c3 -5 1 -12 -5 -16 -5 -3 -10 1 -10 9 0 18 6 21 15 7z m-575 -11 c0 -5 -4 -10
-10 -10 -5 0 -10 5 -10 10 0 6 5 10 10 10 6 0 10 -4 10 -10z m250 -5 c0 -19
-6 -19 -14 0 -3 8 -1 15 4 15 6 0 10 -7 10 -15z m-66 -27 c13 -22 6 -29 -22
-21 -26 6 -32 46 -6 41 9 -2 22 -11 28 -20z m2713 -4 c-3 -3 -12 -4 -19 -1 -8
3 -5 6 6 6 11 1 17 -2 13 -5z"/>
<path d="M531 5827 c-6 -8 -8 -16 -5 -19 10 -10 44 4 44 18 0 18 -24 18 -39 1z"/>
<path d="M1150 4305 c0 -17 2 -18 24 -9 23 9 20 24 -4 24 -11 0 -20 -7 -20
-15z"/>
<path d="M931 3627 c-7 -9 -22 -15 -34 -14 -16 2 -22 -5 -28 -33 -4 -19 -6
-36 -5 -37 1 -2 18 2 36 7 29 8 37 7 56 -11 17 -16 22 -17 27 -6 3 8 0 20 -6
26 -7 7 -16 28 -22 48 -9 32 -12 34 -24 20z"/>
<path d="M3344 3146 c-10 -8 -16 -17 -12 -21 11 -11 48 5 48 21 0 18 -11 18
-36 0z"/>
<path d="M575 2140 c3 -5 10 -10 16 -10 5 0 9 5 9 10 0 6 -7 10 -16 10 -8 0
-12 -4 -9 -10z"/>
<path d="M3991 481 c-7 -5 -11 -13 -7 -19 7 -11 56 7 56 21 0 10 -32 9 -49 -2z"/>
<path d="M3700 25 c0 -21 5 -25 30 -25 30 0 30 0 14 25 -9 14 -23 25 -30 25
-8 0 -14 -10 -14 -25z"/>
</g>
</svg>
