<?xml version="1.0" standalone="no"?>
<!DOCTYPE svg PUBLIC "-//W3C//DTD SVG 20010904//EN"
 "http://www.w3.org/TR/2001/REC-SVG-20010904/DTD/svg10.dtd">
<svg version="1.0" xmlns="http://www.w3.org/2000/svg"
 width="500.000000pt" height="728.000000pt" viewBox="0 0 500.000000 728.000000"
 preserveAspectRatio="xMidYMid meet">
<metadata>
Created by potrace 1.13, written by Peter Selinger 2001-2015
</metadata>
<g transform="translate(0.000000,728.000000) scale(0.100000,-0.100000)"
fill="#000000" stroke="none">
<path d="M0 3685 l0 -3595 340 0 c187 0 340 3 340 8 -1 4 -9 25 -20 47 -11 22
-19 45 -20 50 0 6 -14 26 -31 45 -29 32 -31 37 -24 84 4 28 11 76 15 106 4 30
15 96 25 145 19 102 30 407 44 1165 9 488 21 670 61 875 10 55 21 126 25 157
8 70 -10 380 -32 543 -14 111 -18 184 -8 193 5 6 91 4 138 -2 23 -3 -10 10
-73 29 -63 19 -130 35 -148 35 -18 0 -40 4 -50 10 -23 13 -109 40 -127 40 -18
0 -18 5 -4 68 l10 49 102 -37 c444 -165 568 -217 548 -230 -11 -6 -11 -9 0
-13 8 -3 -5 -3 -28 0 -47 6 -57 -2 -20 -16 22 -9 28 -24 51 -133 4 -16 11 -28
17 -28 8 0 8 -4 1 -13 -39 -46 -43 -257 -7 -360 9 -28 14 -60 10 -77 -8 -35
12 -148 31 -177 8 -12 15 -42 15 -65 l1 -43 8 48 c5 27 10 51 12 53 2 2 38 10
79 19 41 8 87 25 102 36 19 14 54 23 110 29 45 5 105 14 132 20 177 40 814 99
1105 103 219 2 245 -2 255 -46 6 -27 23 -181 20 -185 -1 -1 -18 5 -38 13 -61
25 -282 18 -782 -25 -208 -19 -660 -76 -676 -86 -4 -2 -46 -8 -93 -13 -67 -7
-95 -14 -124 -34 -20 -14 -56 -29 -79 -33 -23 -3 -50 -14 -61 -24 -23 -22 -47
-144 -38 -195 7 -33 9 -36 24 -23 42 36 113 68 149 68 34 0 169 19 458 64 55
9 235 27 400 41 648 54 771 57 859 25 l55 -21 15 -67 c22 -99 29 -142 23 -142
-3 0 -25 8 -49 19 -73 31 -113 33 -363 16 -509 -33 -980 -77 -1085 -100 -70
-16 -363 -55 -412 -55 -16 0 -43 -9 -60 -21 -16 -12 -31 -19 -33 -17 -2 2 2
28 10 58 22 83 16 95 -7 15 -11 -38 -27 -77 -35 -85 -9 -8 -13 -9 -9 -2 4 6 3
12 -3 12 -13 0 -44 -108 -43 -150 1 -19 2 -57 3 -85 l2 -50 11 33 c7 19 19 38
27 43 9 4 92 15 185 24 93 9 192 23 219 30 47 13 313 47 470 60 39 3 171 14
295 25 280 26 642 50 738 50 57 0 85 -6 128 -25 66 -30 64 -30 65 -2 1 36 18
-29 23 -90 3 -28 8 -72 11 -97 l7 -46 -27 10 c-15 6 -37 17 -48 25 -28 19
-115 19 -434 0 -457 -28 -1080 -90 -1313 -130 -47 -9 -139 -20 -205 -25 -66
-6 -132 -13 -148 -16 -27 -6 -27 -5 -22 38 l5 43 -10 -38 c-9 -35 -41 -89 -66
-112 -7 -5 -14 -35 -18 -65 -4 -37 -2 -50 4 -40 8 12 10 11 10 -7 0 -13 4 -23
9 -23 19 0 22 -41 11 -122 -14 -98 -38 -180 -51 -172 -5 3 -9 -5 -9 -18 0 -14
3 -18 8 -12 4 7 7 -36 8 -95 1 -89 6 -121 31 -201 30 -91 39 -156 35 -247 -2
-35 -5 -41 -19 -37 -11 4 -14 3 -7 -3 7 -5 11 -40 11 -93 -1 -47 5 -124 13
-172 12 -78 15 -86 31 -77 10 5 25 9 34 9 13 0 14 -4 5 -20 -6 -11 -7 -20 -3
-21 4 0 -1 -4 -12 -9 -12 -5 50 -9 160 -9 163 -1 350 13 540 39 79 10 357 35
810 72 177 14 563 15 620 2 40 -10 40 -10 43 -62 l3 -52 207 -1 c114 -1 445
-3 735 -5 291 -1 531 -5 535 -8 3 -3 -227 -6 -511 -6 -510 0 -517 0 -517 -20
0 -11 -4 -20 -10 -20 -5 0 -10 9 -10 19 0 11 -4 23 -10 26 -6 4 -10 -10 -10
-34 l0 -41 700 0 700 0 0 35 0 35 -137 1 c-76 1 -145 1 -155 0 -9 -1 -19 3
-23 9 -5 8 40 9 154 4 l161 -7 0 432 c0 238 -3 431 -7 429 -111 -56 -130 -62
-203 -62 -74 -1 -190 27 -190 45 0 5 -6 9 -14 9 -25 0 -102 85 -132 146 -26
53 -29 69 -29 159 0 119 20 168 100 251 78 79 128 99 255 99 99 0 108 -2 163
-32 l57 -31 0 2879 0 2879 -2500 0 -2500 0 0 -3595z m2406 3462 c14 17 14 17
28 0 14 -18 14 -18 21 2 6 21 25 29 25 11 0 -5 3 -9 8 -7 12 4 10 -17 -4 -38
-13 -17 -16 -18 -24 -5 -8 12 -10 10 -10 -9 0 -17 4 -22 16 -17 9 3 19 6 24 6
5 0 14 16 20 35 6 19 16 35 21 35 9 0 4 -54 -7 -72 -3 -4 -1 -8 5 -8 5 0 13 5
16 11 4 6 14 8 22 5 9 -4 23 -1 32 6 10 8 9 5 -3 -10 -11 -12 -24 -22 -30 -21
-35 4 -46 -14 -21 -34 6 -5 3 -7 -7 -3 -10 3 -20 1 -23 -4 -4 -6 -10 -10 -15
-10 -9 0 -6 32 5 50 3 6 2 10 -2 10 -12 0 -38 -43 -34 -59 1 -7 -2 -10 -8 -7
-5 4 -11 -4 -13 -16 -2 -13 -11 -24 -23 -27 -19 -3 -19 -3 -2 16 18 20 24 69
7 58 -5 -3 -7 -12 -4 -19 3 -8 1 -16 -4 -20 -5 -3 -9 0 -9 7 -1 32 -26 99 -39
104 -8 3 -14 18 -14 37 l1 31 15 -28 c15 -27 16 -28 30 -10z m184 -29 c0 -4
-10 -7 -23 -6 -18 2 -23 7 -19 24 4 21 5 21 23 6 10 -9 19 -20 19 -24z m-259
13 c32 -19 63 -67 54 -81 -3 -5 -1 -11 5 -15 5 -3 10 -16 10 -28 -1 -19 -2
-20 -10 -6 -5 9 -11 27 -13 40 -3 14 -11 23 -25 24 -20 1 -19 0 5 -32 24 -31
21 -47 -5 -21 -9 9 -12 9 -12 0 0 -7 5 -12 10 -12 15 0 12 -27 -4 -33 -10 -4
-13 -1 -10 7 4 11 -5 13 -40 10 -25 -1 -48 2 -52 7 -8 13 -33 -8 -45 -38 -5
-13 -16 -23 -26 -23 -16 0 -16 2 -3 11 13 9 13 10 0 6 -8 -2 -15 -10 -15 -18
0 -8 -8 -13 -17 -13 -10 1 -17 -1 -16 -5 1 -3 -2 -14 -6 -23 -10 -23 -41 -24
-32 -2 3 9 6 20 6 25 0 5 10 14 23 19 22 10 22 10 -3 9 -14 -1 -28 -1 -32 0
-4 1 0 20 9 44 8 23 15 50 15 60 -1 20 23 23 35 5 4 -7 6 -26 5 -43 l-1 -30 9
29 c5 16 8 47 6 68 -3 40 2 46 22 26 9 -9 12 -6 12 15 0 34 13 34 34 2 9 -14
12 -25 6 -25 -5 0 -10 -4 -10 -10 0 -5 9 -10 19 -10 14 0 18 5 14 20 -4 15 0
20 15 20 15 0 19 5 15 20 -7 25 8 25 48 1z m304 -40 c-1 -11 -8 -27 -16 -37
-11 -13 -11 -18 -1 -21 6 -3 12 -9 12 -14 0 -4 -6 -6 -14 -3 -7 3 -20 -1 -27
-8 -18 -18 -123 -39 -109 -23 5 6 28 18 49 25 22 7 39 17 38 23 -1 6 8 16 21
22 12 7 26 16 30 20 4 5 0 4 -8 0 -10 -5 -8 -1 4 13 23 27 23 27 21 3z m5
-111 c0 -5 -4 -10 -10 -10 -5 0 -10 5 -10 10 0 6 5 10 10 10 6 0 10 -4 10 -10z
m-325 -19 c-9 -8 -88 -31 -93 -26 -2 2 7 6 19 10 13 4 29 14 36 21 8 7 20 11
29 7 8 -3 12 -8 9 -12z m49 -31 c-23 -10 -45 -23 -48 -29 -10 -15 40 -33 76
-27 20 3 28 0 28 -10 0 -8 5 -14 12 -14 26 0 -7 -15 -55 -26 -29 -6 -61 -14
-72 -18 -11 -3 3 5 30 19 36 18 42 23 20 18 -16 -4 -38 -6 -48 -5 -10 0 -15
-4 -11 -10 4 -6 -2 -6 -15 2 -12 6 -19 16 -15 22 4 7 -2 8 -17 3 -21 -6 -22
-5 -8 6 9 8 19 23 23 33 6 16 4 17 -9 6 -18 -15 -78 -22 -69 -9 5 8 100 40
112 37 4 -1 14 1 22 5 61 23 98 21 44 -3z m761 -40 c-5 -28 -4 -30 14 -20 29
15 38 12 15 -5 -19 -14 -19 -14 1 -15 11 -1 14 -4 7 -7 -18 -7 -4 -23 16 -17
9 3 6 -1 -8 -10 l-25 -15 25 -10 25 -10 -25 -1 c-20 0 -22 -2 -10 -10 13 -8
12 -10 -2 -10 -10 0 -18 -4 -18 -8 0 -5 -7 -17 -16 -28 -8 -10 -13 -13 -9 -7
4 9 1 11 -10 7 -9 -4 -14 -13 -11 -20 7 -17 -10 -19 -18 -1 -3 6 -3 -7 0 -30
3 -26 2 -43 -4 -43 -6 0 -8 10 -4 23 5 22 5 22 -17 3 l-22 -20 24 -13 c29 -15
42 -42 26 -57 -8 -8 -10 -7 -9 4 4 29 0 36 -35 54 -34 19 -50 41 -21 30 8 -3
19 3 25 15 14 26 14 34 -1 25 -7 -5 -9 -2 -5 9 3 9 -1 21 -11 29 -10 8 -13 8
-9 1 4 -6 3 -15 -3 -18 -6 -4 -8 -15 -5 -26 4 -11 2 -19 -5 -19 -6 0 -8 5 -4
12 5 8 2 9 -9 5 -9 -3 -19 -2 -22 3 -4 6 0 10 8 10 8 0 17 7 20 14 4 10 1 13
-9 9 -10 -4 -12 0 -8 11 3 9 3 16 0 16 -4 0 -10 -10 -15 -22 -5 -13 -10 -17
-14 -11 -4 6 0 19 9 28 13 13 19 13 32 3 13 -11 14 -10 8 10 -5 14 -3 22 4 22
7 0 8 5 3 13 -13 20 -10 56 5 62 8 3 12 11 9 18 -7 18 13 32 53 35 26 2 31 0
20 -7 -8 -6 -10 -11 -4 -11 6 0 17 7 24 15 18 22 21 19 15 -15z m-328 -66 c-3
-3 -12 -4 -19 -1 -8 3 -5 6 6 6 11 1 17 -2 13 -5z m-335 -11 c-18 -4 -22 -9
-16 -26 9 -29 4 -27 72 -37 33 -4 69 -13 80 -19 12 -6 38 -13 60 -16 34 -4 40
-2 45 15 8 31 37 25 38 -7 1 -16 1 -31 0 -35 0 -5 9 -8 22 -9 21 -1 21 -1 -2
-8 l-24 -7 30 -34 c55 -63 98 -185 102 -289 3 -68 -17 -191 -31 -191 -4 0 -7
3 -7 8 4 26 -1 34 -16 22 -8 -7 -12 -17 -8 -24 3 -6 -7 1 -23 16 -18 16 -53
33 -89 42 -111 27 -122 28 -138 12 -9 -9 -29 -16 -45 -16 -30 0 -42 -12 -84
-85 -37 -66 -42 -82 -42 -144 -1 -46 -5 -66 -15 -69 -8 -3 -11 0 -7 7 11 16
-19 24 -43 11 -36 -19 -2 -42 62 -42 93 -1 97 3 97 83 0 42 6 81 15 98 8 16
11 31 8 35 -4 3 1 6 10 6 9 0 17 6 17 14 0 14 21 26 47 26 13 0 13 -3 3 -15
-7 -8 -10 -25 -7 -37 4 -12 2 -27 -3 -34 -16 -18 96 -97 126 -90 29 8 30 1 3
-54 -14 -29 -23 -39 -29 -30 -6 9 -10 7 -15 -9 -3 -11 -27 -42 -53 -68 -26
-26 -46 -50 -45 -54 1 -4 -4 -13 -12 -19 -8 -7 -15 -17 -15 -22 0 -5 -12 -20
-27 -34 -14 -13 -23 -28 -18 -32 4 -4 10 -1 12 6 3 6 12 12 21 12 13 0 11 -5
-8 -20 -14 -11 -30 -20 -37 -20 -7 0 -16 -6 -20 -13 -4 -7 -26 -21 -49 -31
-44 -19 -57 -44 -70 -131 -4 -27 -12 -53 -18 -57 -7 -5 -2 -31 14 -82 23 -71
40 -96 40 -61 0 8 5 15 10 15 13 0 13 -13 -2 -28 -8 -8 -8 -15 1 -26 9 -11 9
-15 -1 -19 -8 -4 -7 -6 5 -6 9 -1 17 4 17 10 0 5 5 7 10 4 6 -3 10 -1 10 6 0
7 3 9 6 6 4 -4 1 -13 -6 -22 -7 -8 -8 -15 -2 -15 18 0 90 87 97 119 9 41 25
35 51 -20 14 -28 30 -46 45 -50 l24 -6 -25 -10 c-55 -23 -79 -76 -55 -123 8
-16 18 -30 21 -30 2 0 0 9 -6 19 -21 40 -12 69 31 98 46 31 75 23 72 -18 -1
-15 0 -17 3 -6 7 21 30 23 37 3 3 -8 48 -28 99 -45 51 -17 86 -30 77 -31 -9 0
-42 9 -74 20 -32 11 -59 19 -60 18 -1 -2 -5 -15 -8 -29 l-6 -25 92 -3 c92 -2
188 -20 260 -49 37 -14 38 -16 32 -51 -4 -20 -8 -41 -8 -47 -1 -18 -238 -4
-361 21 l-110 22 -105 -67 c-58 -37 -115 -71 -126 -75 -16 -8 -13 -10 20 -12
22 -2 103 -13 180 -24 114 -17 163 -20 266 -15 102 6 134 4 163 -8 20 -8 36
-20 36 -25 0 -6 5 -11 10 -11 6 0 10 20 10 46 l0 45 66 31 c49 23 71 29 83 21
17 -11 47 -90 57 -151 6 -37 5 -38 -33 -50 -21 -6 -72 -32 -113 -57 -41 -24
-79 -45 -83 -45 -5 0 -35 16 -68 36 l-59 37 -142 -6 c-79 -3 -219 0 -313 5
-267 17 -834 -20 -1045 -67 -58 -13 -163 -31 -235 -39 -71 -8 -144 -18 -161
-22 l-32 -6 -7 62 c-4 38 -14 67 -24 76 -96 79 -249 194 -258 194 -21 0 -16 8
44 76 34 38 65 64 77 64 11 0 52 11 91 25 43 15 124 30 199 39 70 7 129 16
132 19 4 3 -8 21 -25 39 -17 18 -31 35 -31 38 0 3 14 14 31 24 17 10 61 45 96
77 69 63 104 79 128 59 8 -7 22 -9 31 -6 14 6 15 4 4 -9 -11 -13 -10 -19 5
-33 14 -12 16 -13 7 -1 -9 12 0 26 49 80 61 64 122 159 159 243 28 65 19 62
-71 -26 -43 -43 -46 -44 -46 -22 0 14 8 29 18 35 10 5 25 21 32 36 9 17 24 27
41 29 32 3 69 41 61 61 -2 8 -1 11 4 8 12 -7 21 8 33 54 5 20 13 53 19 74 5
21 10 95 10 165 0 94 4 137 17 166 15 35 15 39 0 47 -23 13 -51 115 -45 165 5
52 29 99 47 98 8 -1 30 -4 47 -8 32 -7 37 -3 137 98 58 58 110 106 115 106 6
0 11 6 11 13 0 38 129 95 219 98 14 0 20 3 12 6 -11 5 -11 7 0 14 19 12 -6 12
-49 0 -20 -6 -30 -6 -27 0 4 5 15 9 25 9 10 0 22 5 25 11 4 6 12 8 19 6 6 -2
20 -1 31 4 11 4 31 7 45 7 24 -1 24 -1 2 -5z m-567 -220 c-15 -11 -15 -14 -3
-10 19 7 53 -26 44 -42 -4 -6 -20 -8 -35 -5 -16 4 -32 1 -35 -5 -9 -14 -26 -4
-26 15 0 16 49 63 65 63 6 0 1 -7 -10 -16z m1430 -13 c10 -11 16 -20 13 -20
-3 0 -13 9 -23 20 -10 11 -16 20 -13 20 3 0 13 -9 23 -20z m-301 -16 c3 -9 6
-22 6 -30 0 -12 -2 -12 -14 -2 -10 9 -11 15 -2 20 8 6 8 8 -1 8 -7 0 -13 5
-13 10 0 16 17 12 24 -6z m-1244 -38 c0 -3 -4 -8 -10 -11 -5 -3 -10 -1 -10 4
0 6 5 11 10 11 6 0 10 -2 10 -4z m1297 -53 c-3 -10 -5 -2 -5 17 0 19 2 27 5
18 2 -10 2 -26 0 -35z m-1301 2 c-22 -24 -25 -25 -23 -7 0 12 4 19 8 16 4 -2
12 3 19 11 7 9 15 14 17 11 2 -2 -7 -16 -21 -31z m134 31 c0 -2 -11 -6 -25 -8
-14 -3 -25 -1 -25 3 0 5 11 9 25 9 14 0 25 -2 25 -4z m1130 -52 c0 -8 -19 -13
-24 -6 -3 5 1 9 9 9 8 0 15 -2 15 -3z m-5 -35 c-3 -3 2 -12 10 -19 17 -14 20
-30 5 -30 -5 0 -10 7 -10 15 0 9 -7 18 -15 21 -19 8 -19 21 0 21 8 0 12 -4 10
-8z m-18 -41 c-3 -8 -6 -5 -6 6 -1 11 2 17 5 13 3 -3 4 -12 1 -19z m-1300 -30
c-3 -7 -5 -2 -5 12 0 14 2 19 5 13 2 -7 2 -19 0 -25z m1340 -10 c-3 -8 -6 -5
-6 6 -1 11 2 17 5 13 3 -3 4 -12 1 -19z m288 12 c3 -5 1 -10 -4 -10 -6 0 -11
5 -11 10 0 6 2 10 4 10 3 0 8 -4 11 -10z m-313 -55 c3 -14 2 -28 -2 -30 -4 -3
-10 11 -12 29 -4 39 7 40 14 1z m351 9 c11 -14 17 -27 15 -30 -3 -2 -14 10
-27 26 -12 17 -18 30 -14 30 4 0 16 -12 26 -26z m-303 6 c0 -5 -4 -10 -10 -10
-5 0 -10 5 -10 10 0 6 5 10 10 10 6 0 10 -4 10 -10z m-1315 -30 c-4 -13 1 -31
14 -49 12 -16 21 -35 21 -42 0 -8 -12 4 -26 24 -18 27 -24 46 -20 63 4 13 9
24 12 24 3 0 2 -9 -1 -20z m1309 -73 c3 -26 1 -47 -5 -47 -5 0 -9 23 -9 52 0
62 8 59 14 -5z m351 43 c3 -6 -1 -7 -9 -4 -18 7 -21 14 -7 14 6 0 13 -4 16
-10z m-860 -58 c-11 -2 -24 -8 -29 -13 -13 -12 -26 -11 -26 1 0 14 41 29 60
21 12 -4 10 -6 -5 -9z m15 -22 c0 -5 -6 -10 -12 -10 -7 0 -24 -3 -38 -5 -22
-5 -21 -3 5 9 36 18 45 19 45 6z m160 -30 c30 -21 44 -56 28 -67 -7 -3 -8 -1
-4 5 4 7 1 12 -9 12 -8 0 -18 7 -21 15 -4 8 -11 15 -16 15 -6 0 -18 8 -27 18
-9 11 -23 22 -31 26 -8 3 0 4 18 1 19 -3 46 -14 62 -25z m88 -25 c-3 -3 -9 2
-12 12 -6 14 -5 15 5 6 7 -7 10 -15 7 -18z m-1048 -39 c-5 -5 -6 -15 -3 -22 3
-8 1 -14 -4 -14 -5 0 -17 -14 -27 -30 -9 -17 -22 -27 -28 -24 -6 4 -5 10 3 15
10 6 10 9 2 9 -9 0 -9 8 -1 33 16 47 37 69 53 54 7 -7 10 -16 5 -21z m869 -21
c-11 -10 -20 -10 -39 -2 l-25 10 25 5 c14 2 29 8 35 13 6 6 11 6 14 -2 2 -6
-3 -17 -10 -24z m128 -77 c-3 -8 -6 -5 -6 6 -1 11 2 17 5 13 3 -3 4 -12 1 -19z
m-1103 -174 c7 -19 2 -18 -19 6 -16 17 -16 20 -3 15 9 -4 19 -13 22 -21z m76
-16 c0 -9 3 -8 10 2 7 11 11 9 19 -13 19 -49 11 -58 -30 -37 -20 11 -27 60 -9
60 6 0 10 -6 10 -12z m939 3 c8 -5 9 -11 3 -15 -5 -3 -15 1 -22 9 -14 16 -3
20 19 6z m-56 -53 c-9 -18 -16 -37 -14 -43 1 -5 -1 -7 -5 -3 -4 4 -13 3 -20
-3 -8 -7 -14 -6 -20 2 -4 8 -3 9 4 5 7 -4 22 10 38 34 32 48 41 52 17 8z
m-889 -72 c-3 -9 -10 -16 -15 -16 -5 0 -4 9 3 20 14 22 21 20 12 -4z m823 -8
c-3 -8 -6 -5 -6 6 -1 11 2 17 5 13 3 -3 4 -12 1 -19z m43 -7 c0 -5 -7 -11 -15
-15 -9 -3 -15 0 -15 9 0 8 7 15 15 15 8 0 15 -4 15 -9z m-943 -17 c-3 -3 -12
-4 -19 -1 -8 3 -5 6 6 6 11 1 17 -2 13 -5z m40 0 c-3 -3 -12 -4 -19 -1 -8 3
-5 6 6 6 11 1 17 -2 13 -5z m1031 -106 c17 -17 15 -29 -9 -57 -17 -21 -22 -22
-30 -10 -17 28 -4 79 21 79 3 0 11 -5 18 -12z m-1243 -48 c-3 -5 -16 -15 -28
-21 -19 -9 -19 -8 3 10 28 23 34 26 25 11z m852 -92 c-3 -8 -6 -5 -6 6 -1 11
2 17 5 13 3 -3 4 -12 1 -19z m11 -41 c14 6 15 5 2 -9 -15 -16 -31 -7 -29 17 0
6 3 5 5 -2 3 -7 13 -9 22 -6z m336 -92 c-21 -32 -54 -52 -54 -33 1 10 49 50
68 57 1 1 -5 -10 -14 -24z m1836 -206 c0 -31 -26 -91 -43 -100 -19 -11 -19
-11 1 -25 21 -15 33 -46 23 -61 -3 -5 -15 -15 -26 -22 -19 -12 -19 -12 3 -7
23 4 24 3 19 -39 -5 -37 -3 -44 14 -48 11 -3 23 -15 26 -27 3 -11 11 -19 17
-17 22 7 16 32 -11 49 -18 11 -22 18 -12 18 26 0 59 -35 59 -63 0 -24 -2 -25
-42 -20 -29 4 -39 3 -34 -5 4 -7 14 -12 22 -12 8 0 13 -4 10 -9 -10 -16 5 -41
25 -41 10 0 19 5 19 10 0 16 37 11 44 -6 10 -26 7 -62 -8 -97 -29 -70 -141
-207 -260 -320 -71 -68 -131 -133 -141 -155 -10 -20 -30 -57 -45 -82 -16 -25
-38 -70 -50 -100 -47 -120 -268 -584 -348 -730 -11 -19 -29 -53 -40 -75 -12
-22 -35 -66 -52 -97 -16 -32 -30 -64 -30 -73 0 -8 -4 -15 -9 -15 -4 0 -24 -35
-44 -77 -44 -94 -70 -139 -96 -169 -11 -13 -27 -36 -35 -51 -8 -15 -36 -52
-61 -80 -38 -44 -52 -53 -79 -53 -50 0 -75 36 -107 153 -20 69 -37 268 -33
377 6 191 6 312 0 357 -5 46 -3 55 17 76 13 13 26 30 29 38 4 11 9 12 26 2 16
-10 21 -10 25 0 2 7 5 -1 5 -18 1 -16 6 -74 12 -128 10 -82 9 -101 -3 -120
-15 -24 -60 -157 -54 -163 2 -2 18 32 35 75 18 43 46 96 62 117 73 95 129 188
185 308 75 162 249 513 311 626 26 47 55 101 65 120 10 20 22 65 25 100 11
114 82 333 114 350 9 5 43 40 74 79 50 60 62 70 99 76 63 11 100 34 145 91 49
63 152 119 152 83z m-3828 -460 c14 -10 66 -42 115 -70 48 -29 118 -80 155
-113 61 -55 68 -65 68 -98 0 -21 1 -38 3 -38 2 0 32 12 67 26 35 14 108 32
164 39 56 8 132 23 169 34 37 11 125 27 195 35 264 32 984 82 1105 77 27 -1
97 -20 167 -46 65 -25 126 -45 135 -45 8 0 24 -9 36 -21 l21 -21 98 46 c54 25
118 49 142 52 l44 6 22 -88 c27 -107 27 -114 4 -114 -34 0 -207 -61 -228 -81
-11 -10 -34 -19 -52 -19 -26 0 -33 -5 -38 -27 -9 -44 -23 -73 -34 -73 -6 0 -5
9 4 23 7 12 16 40 19 61 6 38 4 42 -56 102 -71 71 -79 74 -304 95 -144 13
-232 9 -435 -20 -73 -11 -200 -27 -283 -36 -324 -34 -415 -48 -550 -80 -77
-18 -166 -38 -197 -45 -37 -7 -72 -23 -103 -47 -38 -28 -49 -33 -56 -22 -5 8
-9 17 -9 20 0 4 -11 10 -26 13 -14 4 -64 33 -113 66 -74 50 -88 64 -97 96 -9
36 -11 38 -124 80 -63 24 -118 45 -122 46 -5 2 0 51 10 110 19 119 22 121 84
77z m2174 -424 c116 -20 124 -29 124 -142 0 -69 -3 -83 -13 -75 -49 41 -365
46 -612 9 -93 -14 -192 -28 -220 -31 -221 -26 -522 -71 -584 -88 -112 -30
-266 -92 -355 -143 -44 -25 -81 -45 -83 -45 -2 0 -3 16 -3 35 0 35 -16 47 -26
20 -10 -25 -31 -17 -54 19 -19 31 -39 42 -198 104 -97 39 -213 83 -257 98 -44
15 -83 30 -86 33 -4 3 0 44 7 91 8 47 15 93 16 103 1 9 8 17 14 17 7 0 66 -21
131 -46 65 -25 144 -55 176 -67 52 -20 59 -26 74 -67 24 -67 46 -86 114 -100
58 -12 59 -14 70 -54 16 -63 17 -64 18 -13 l1 48 107 50 c206 96 301 120 663
164 157 20 364 46 460 60 275 38 383 43 516 20z m593 -157 c10 -26 34 -178 29
-183 -2 -1 -46 -14 -98 -29 -52 -14 -130 -37 -172 -50 -43 -14 -94 -28 -113
-32 -35 -6 -35 -6 -35 29 0 20 5 39 10 42 6 3 10 22 10 41 0 19 5 34 11 34 7
0 9 10 7 25 -3 14 -1 25 4 25 5 0 41 16 81 34 60 29 220 83 250 85 4 1 11 -9
16 -21z m-549 -278 c19 -7 39 -16 44 -20 4 -5 5 -55 1 -112 l-7 -105 -33 17
c-103 53 -482 27 -1185 -79 -123 -19 -209 -41 -235 -62 -5 -4 -27 -10 -48 -14
-21 -4 -42 -16 -48 -26 -5 -11 -46 -37 -91 -60 -137 -69 -123 -73 -142 44 -14
82 -14 103 -4 112 25 24 277 134 384 168 60 19 170 45 244 56 121 19 614 84
715 95 81 8 370 -2 405 -14z m-2263 -176 c-3 -3 -12 -4 -19 -1 -8 3 -5 6 6 6
11 1 17 -2 13 -5z m2632 -8 c-2 -2 -17 -6 -34 -9 l-30 -6 30 13 c26 12 47 13
34 2z m35 -8 c3 -13 5 -36 5 -53 -1 -29 -1 -30 -9 -5 -7 21 -8 22 -10 5 -1
-13 -5 -7 -10 14 -12 52 10 89 24 39z m-436 -247 c67 -13 73 -24 79 -142 3
-62 1 -99 -4 -92 -5 7 -35 18 -67 25 -66 13 -470 -3 -693 -27 -291 -31 -412
-48 -493 -65 -47 -10 -112 -22 -145 -25 -33 -4 -70 -13 -81 -20 -18 -11 -98
-33 -216 -59 -12 -3 -19 7 -27 40 -14 56 -15 51 18 68 20 11 34 30 47 66 15
42 22 50 43 50 15 0 74 16 132 34 59 19 133 37 165 41 33 4 89 13 125 21 305
62 973 113 1117 85z m260 -1286 c0 -16 -2 -15 -8 5 -11 34 -11 60 0 35 5 -11
8 -29 8 -40z m86 -437 c3 -35 5 -109 5 -165 -1 -92 -3 -103 -19 -103 -10 0
-20 9 -23 20 -5 19 -13 20 -144 20 -76 0 -201 -5 -278 -10 -77 -6 -270 -19
-430 -30 -159 -11 -328 -25 -375 -30 -198 -22 -369 -43 -590 -70 -129 -16
-277 -32 -327 -36 l-93 -7 0 102 c0 117 -14 105 140 120 246 25 400 42 450 51
275 46 1103 113 1416 114 160 1 184 -1 201 -16 11 -10 29 -18 40 -18 15 0 20
5 18 18 -10 46 -12 102 -5 102 4 0 10 -28 14 -62z m20 -424 c-2 -60 -14 -70
-14 -12 0 36 5 58 15 58 0 0 0 -21 -1 -46z m-44 -55 c7 -13 17 -18 27 -15 13
5 14 -6 8 -96 -4 -57 -9 -105 -11 -107 -2 -2 -12 3 -22 12 -16 14 -44 17 -178
17 -238 0 -968 -59 -1529 -124 -165 -19 -343 -38 -396 -42 l-96 -7 -11 49 c-6
27 -13 72 -17 101 l-5 51 47 6 c27 3 98 11 158 16 114 11 443 49 650 75 66 8
244 25 395 36 151 11 349 27 440 34 91 7 247 13 347 14 175 1 183 0 193 -20z
m-4 -437 c32 -17 35 -36 23 -133 l-12 -89 -26 8 c-14 4 -145 7 -291 7 -307 -1
-686 -30 -1417 -111 -223 -24 -365 -31 -361 -16 4 14 -13 134 -22 158 -11 29
-11 29 145 43 61 5 256 26 435 46 543 60 1117 104 1325 101 111 -1 188 -7 201
-14z m1259 -612 c-3 -5 -11 -10 -16 -10 -6 0 -7 5 -4 10 3 6 11 10 16 10 6 0
7 -4 4 -10z m58 -7 c-7 -2 -21 -2 -30 0 -10 3 -4 5 12 5 17 0 24 -2 18 -5z"/>
<path d="M2417 7088 c-7 -25 -3 -33 12 -23 13 8 15 45 2 45 -5 0 -11 -10 -14
-22z"/>
<path d="M2455 7060 c3 -5 8 -10 11 -10 2 0 4 5 4 10 0 6 -5 10 -11 10 -5 0
-7 -4 -4 -10z"/>
<path d="M2220 7048 c-4 -28 -5 -32 -13 -45 -5 -8 -4 -13 2 -13 6 0 11 5 11
10 0 6 7 10 15 10 8 0 15 -5 15 -12 0 -6 3 -8 7 -5 3 4 -1 15 -9 24 -9 10 -18
25 -21 33 -4 12 -6 12 -7 -2z"/>
<path d="M2173 7029 c3 -9 0 -22 -6 -28 -9 -9 -8 -11 6 -6 20 8 21 14 6 35 -9
13 -10 13 -6 -1z"/>
<path d="M2277 7013 c-3 -5 8 -9 24 -10 17 -1 27 2 24 7 -7 12 -42 13 -48 3z"/>
<path d="M2150 6525 c0 -2 21 -13 46 -24 45 -20 124 -91 124 -111 0 -6 5 -10
12 -10 6 0 22 -10 35 -22 22 -21 23 -21 23 -2 0 27 -100 130 -155 158 -28 15
-85 22 -85 11z"/>
<path d="M1837 6427 c-3 -8 1 -14 9 -14 16 0 19 13 5 21 -5 3 -11 0 -14 -7z"/>
<path d="M1895 6419 c-4 -6 -5 -13 -2 -16 7 -7 27 6 27 18 0 12 -17 12 -25 -2z"/>
<path d="M2178 6425 c-2 -2 -20 -5 -41 -7 -20 -1 -37 -5 -37 -9 0 -16 32 -31
69 -32 38 -2 39 -3 34 -31 -8 -38 19 -61 51 -44 11 6 24 16 28 22 4 6 11 -1
17 -16 9 -24 34 -50 30 -31 -1 4 1 21 6 36 8 32 -7 54 -61 88 -30 18 -87 32
-96 24z"/>
<path d="M2130 6346 c0 -8 9 -21 20 -29 11 -8 17 -17 13 -20 -3 -4 -1 -7 5 -7
6 0 18 -7 27 -16 17 -17 65 -28 65 -15 0 4 -16 13 -35 20 -19 7 -40 21 -45 32
-6 11 -15 17 -20 14 -4 -3 -6 4 -3 15 4 14 0 20 -11 20 -9 0 -16 -6 -16 -14z"/>
<path d="M2270 6252 c0 -5 7 -9 15 -9 8 0 15 4 15 9 0 4 -7 8 -15 8 -8 0 -15
-4 -15 -8z"/>
<path d="M2836 6221 c-4 -7 -5 -15 -2 -18 9 -9 19 4 14 18 -4 11 -6 11 -12 0z"/>
<path d="M2220 6000 c0 -5 7 -10 16 -10 8 0 12 5 9 10 -3 6 -10 10 -16 10 -5
0 -9 -4 -9 -10z"/>
<path d="M2064 5881 c14 -21 22 -42 18 -47 -4 -4 -2 -4 5 -1 6 4 14 1 16 -5 4
-8 6 -7 6 4 1 9 -3 20 -9 23 -5 3 -15 15 -20 25 -18 33 12 14 39 -25 13 -19
26 -33 30 -31 4 3 13 0 21 -6 12 -8 12 -9 -2 -4 -28 9 -21 -9 8 -23 16 -7 24
-17 20 -26 -14 -37 117 -51 148 -16 16 18 15 20 -24 51 -23 18 -54 34 -69 36
-16 2 -46 15 -67 29 -21 14 -41 25 -44 25 -3 -1 -22 6 -42 14 -55 24 -61 20
-34 -23z"/>
<path d="M2363 5170 c-34 -14 -28 -21 7 -9 17 6 30 13 30 15 0 6 -12 4 -37 -6z"/>
<path d="M1970 4961 c0 -4 -30 -31 -67 -58 -55 -41 -82 -54 -146 -68 -108 -24
-165 -10 -274 67 l-41 30 -109 -21 c-59 -11 -173 -26 -253 -32 -80 -6 -147
-13 -149 -15 -2 -2 5 -25 17 -51 11 -26 23 -63 27 -82 l7 -34 157 6 c86 4 185
13 221 21 36 8 108 23 160 35 63 13 170 24 320 31 124 7 265 15 314 18 l88 7
-85 78 c-83 75 -87 77 -136 77 -28 0 -51 -4 -51 -9z"/>
<path d="M4371 4916 c-9 -11 -9 -15 0 -18 34 -11 -61 -113 -97 -104 -18 5 -21
2 -17 -13 3 -13 -5 -26 -27 -43 l-32 -23 8 -90 c12 -136 12 -147 14 -190 1
-37 2 -38 11 -15 9 23 11 24 20 7 6 -10 8 -24 5 -32 -7 -19 13 -24 46 -11 43
16 57 65 44 154 -10 64 10 178 35 207 10 11 20 38 24 60 4 22 9 48 12 59 3 12
1 16 -6 12 -6 -4 -11 -4 -12 1 -4 47 -12 58 -28 39z"/>
<path d="M4474 4715 c-4 -8 -11 -12 -17 -8 -6 3 -7 1 -3 -6 4 -6 -6 -29 -25
-52 -17 -22 -28 -43 -24 -47 12 -12 85 75 85 103 0 28 -8 33 -16 10z"/>
<path d="M4570 4586 c0 -13 53 -27 64 -16 7 7 6 10 -4 10 -8 0 -25 3 -37 6
-13 4 -23 3 -23 0z"/>
<path d="M4530 4571 c0 -5 -13 -23 -30 -41 -16 -18 -27 -36 -24 -41 3 -6 21
10 40 33 35 45 41 58 24 58 -5 0 -10 -4 -10 -9z"/>
<path d="M1002 1700 c0 -14 2 -19 5 -12 2 6 2 18 0 25 -3 6 -5 1 -5 -13z"/>
<path d="M764 458 c4 -13 10 -31 13 -40 3 -10 0 -18 -6 -18 -6 0 -11 -6 -11
-14 0 -8 -4 -16 -9 -18 -15 -6 14 -171 37 -208 12 -19 22 -43 22 -52 0 -12 8
-18 24 -18 23 0 23 1 10 39 -7 22 -18 84 -23 138 -8 86 -43 213 -58 213 -3 0
-2 -10 1 -22z"/>
</g>
</svg>
